M48
; DRILL file {KiCad 7.0.6} date Tue Aug 29 00:28:17 2023
; FORMAT={-:-/ absolute / inch / decimal}
; #@! TF.CreationDate,2023-08-29T00:28:17+01:00
; #@! TF.GenerationSoftware,Kicad,Pcbnew,7.0.6
; #@! TF.FileFunction,Plated,1,2,PTH
FMAT,2
INCH
; #@! TA.AperFunction,Plated,PTH,ComponentDrill
T1C0.0433
; #@! TA.AperFunction,Plated,PTH,ComponentDrill
T2C0.0630
%
G90
G05
T1
X3.45Y-3.7
X3.45Y-3.8
X3.45Y-3.9
X3.45Y-4.0
X3.45Y-4.1
X3.45Y-4.2
X3.45Y-4.3
X3.45Y-4.4
X3.45Y-4.5
X3.45Y-4.6
X3.45Y-4.7
X3.45Y-4.8
X4.05Y-3.7
X4.05Y-3.8
X4.05Y-3.9
X4.05Y-4.0
X4.05Y-4.1
X4.05Y-4.2
X4.05Y-4.3
X4.05Y-4.4
X4.05Y-4.5
X4.05Y-4.6
X4.05Y-4.7
X4.05Y-4.8
T2
X3.47Y-3.5
X3.63Y-3.409
X3.63Y-3.5
X3.79Y-3.409
X3.79Y-3.5
X3.95Y-3.409
X3.95Y-3.5
T0
M30
