%TF.GenerationSoftware,KiCad,Pcbnew,7.0.6*%
%TF.CreationDate,2023-08-29T00:28:29+01:00*%
%TF.ProjectId,NESInterface,4e455349-6e74-4657-9266-6163652e6b69,rev?*%
%TF.SameCoordinates,Original*%
%TF.FileFunction,Legend,Top*%
%TF.FilePolarity,Positive*%
%FSLAX46Y46*%
G04 Gerber Fmt 4.6, Leading zero omitted, Abs format (unit mm)*
G04 Created by KiCad (PCBNEW 7.0.6) date 2023-08-29 00:28:29*
%MOMM*%
%LPD*%
G01*
G04 APERTURE LIST*
%ADD10C,0.100000*%
%ADD11C,0.150000*%
%ADD12C,1.600000*%
%ADD13R,1.600000X1.600000*%
G04 APERTURE END LIST*
D10*
X93550339Y-69710766D02*
X93550339Y-70520289D01*
X93550339Y-70520289D02*
X93597958Y-70615527D01*
X93597958Y-70615527D02*
X93645577Y-70663147D01*
X93645577Y-70663147D02*
X93740815Y-70710766D01*
X93740815Y-70710766D02*
X93931291Y-70710766D01*
X93931291Y-70710766D02*
X94026529Y-70663147D01*
X94026529Y-70663147D02*
X94074148Y-70615527D01*
X94074148Y-70615527D02*
X94121767Y-70520289D01*
X94121767Y-70520289D02*
X94121767Y-69710766D01*
X94550339Y-69806004D02*
X94597958Y-69758385D01*
X94597958Y-69758385D02*
X94693196Y-69710766D01*
X94693196Y-69710766D02*
X94931291Y-69710766D01*
X94931291Y-69710766D02*
X95026529Y-69758385D01*
X95026529Y-69758385D02*
X95074148Y-69806004D01*
X95074148Y-69806004D02*
X95121767Y-69901242D01*
X95121767Y-69901242D02*
X95121767Y-69996480D01*
X95121767Y-69996480D02*
X95074148Y-70139337D01*
X95074148Y-70139337D02*
X94502720Y-70710766D01*
X94502720Y-70710766D02*
X95121767Y-70710766D01*
D11*
%TO.C,U1*%
X86360000Y-92710000D02*
X104140000Y-92710000D01*
X86360000Y-123190000D02*
X86360000Y-92710000D01*
X91440000Y-123190000D02*
X86360000Y-123190000D01*
X91440000Y-125730000D02*
X91440000Y-123190000D01*
X99060000Y-125730000D02*
X91440000Y-125730000D01*
X99060000Y-123190000D02*
X99060000Y-125730000D01*
X104140000Y-123190000D02*
X99060000Y-123190000D01*
X104140000Y-123190000D02*
X104140000Y-92710000D01*
D10*
%TO.C,U2*%
X107499514Y-71206777D02*
X110194795Y-71206777D01*
X110194795Y-71206777D02*
X110194795Y-73641347D01*
X110194795Y-73641347D02*
X107499514Y-73641347D01*
X107499514Y-73641347D02*
X107499514Y-71206777D01*
X97944933Y-73196712D02*
X99590663Y-73196712D01*
X99590663Y-73196712D02*
X99590663Y-82953346D01*
X99590663Y-82953346D02*
X97944933Y-82953346D01*
X97944933Y-82953346D02*
X97944933Y-73196712D01*
X89393591Y-73116040D02*
X91039321Y-73116040D01*
X91039321Y-73116040D02*
X91039321Y-82955235D01*
X91039321Y-82955235D02*
X89393591Y-82955235D01*
X89393591Y-82955235D02*
X89393591Y-73116040D01*
X81657529Y-67985052D02*
X107495655Y-67985052D01*
X107495655Y-67985052D02*
X107495655Y-82953347D01*
X107495655Y-82953347D02*
X81657529Y-82953347D01*
X81657529Y-82953347D02*
X81657529Y-67985052D01*
X78952096Y-71161350D02*
X81662710Y-71161350D01*
X81662710Y-71161350D02*
X81662710Y-73646080D01*
X81662710Y-73646080D02*
X78952096Y-73646080D01*
X78952096Y-73646080D02*
X78952096Y-71161350D01*
%TD*%
D12*
%TO.C,U1*%
X87630000Y-121920000D03*
X87630000Y-119380000D03*
X87630000Y-116840000D03*
X87630000Y-114300000D03*
X87630000Y-111760000D03*
X87630000Y-109220000D03*
X87630000Y-106680000D03*
X87630000Y-104140000D03*
X87630000Y-101600000D03*
X87630000Y-99060000D03*
X87630000Y-96520000D03*
X87630000Y-93980000D03*
X102870000Y-93980000D03*
X102870000Y-96520000D03*
X102870000Y-99060000D03*
X102870000Y-101600000D03*
X102870000Y-104140000D03*
X102870000Y-106680000D03*
X102870000Y-109220000D03*
X102870000Y-111760000D03*
X102870000Y-114300000D03*
X102870000Y-116840000D03*
X102870000Y-119380000D03*
D13*
X102870000Y-121920000D03*
%TD*%
M02*
