%TF.GenerationSoftware,KiCad,Pcbnew,7.0.6*%
%TF.CreationDate,2023-08-29T00:28:29+01:00*%
%TF.ProjectId,NESInterface,4e455349-6e74-4657-9266-6163652e6b69,rev?*%
%TF.SameCoordinates,Original*%
%TF.FileFunction,Copper,L1,Top*%
%TF.FilePolarity,Positive*%
%FSLAX46Y46*%
G04 Gerber Fmt 4.6, Leading zero omitted, Abs format (unit mm)*
G04 Created by KiCad (PCBNEW 7.0.6) date 2023-08-29 00:28:29*
%MOMM*%
%LPD*%
G01*
G04 APERTURE LIST*
%TA.AperFunction,ComponentPad*%
%ADD10C,1.600000*%
%TD*%
%TA.AperFunction,ComponentPad*%
%ADD11R,1.600000X1.600000*%
%TD*%
%TA.AperFunction,ComponentPad*%
%ADD12C,2.286000*%
%TD*%
%TA.AperFunction,Conductor*%
%ADD13C,0.250000*%
%TD*%
G04 APERTURE END LIST*
D10*
%TO.P,U1,24,RAW*%
%TO.N,unconnected-(U1-RAW-Pad24)*%
X87630000Y-121920000D03*
%TO.P,U1,23,GND*%
%TO.N,GND*%
X87630000Y-119380000D03*
%TO.P,U1,22,RST*%
%TO.N,unconnected-(U1-RST-Pad22)*%
X87630000Y-116840000D03*
%TO.P,U1,21,VCC*%
%TO.N,VCC*%
X87630000Y-114300000D03*
%TO.P,U1,20,F4*%
%TO.N,unconnected-(U1-F4-Pad20)*%
X87630000Y-111760000D03*
%TO.P,U1,19,F5*%
%TO.N,unconnected-(U1-F5-Pad19)*%
X87630000Y-109220000D03*
%TO.P,U1,18,F6*%
%TO.N,unconnected-(U1-F6-Pad18)*%
X87630000Y-106680000D03*
%TO.P,U1,17,F7*%
%TO.N,unconnected-(U1-F7-Pad17)*%
X87630000Y-104140000D03*
%TO.P,U1,16,B1*%
%TO.N,unconnected-(U1-B1-Pad16)*%
X87630000Y-101600000D03*
%TO.P,U1,15,B3*%
%TO.N,unconnected-(U1-B3-Pad15)*%
X87630000Y-99060000D03*
%TO.P,U1,14,B2*%
%TO.N,unconnected-(U1-B2-Pad14)*%
X87630000Y-96520000D03*
%TO.P,U1,13,B6*%
%TO.N,unconnected-(U1-B6-Pad13)*%
X87630000Y-93980000D03*
%TO.P,U1,12,B5*%
%TO.N,Data*%
X102870000Y-93980000D03*
%TO.P,U1,11,B4*%
%TO.N,Latch*%
X102870000Y-96520000D03*
%TO.P,U1,10,E6*%
%TO.N,Clock*%
X102870000Y-99060000D03*
%TO.P,U1,9,D7*%
%TO.N,unconnected-(U1-D7-Pad9)*%
X102870000Y-101600000D03*
%TO.P,U1,8,C6*%
%TO.N,unconnected-(U1-C6-Pad8)*%
X102870000Y-104140000D03*
%TO.P,U1,7,D4*%
%TO.N,unconnected-(U1-D4-Pad7)*%
X102870000Y-106680000D03*
%TO.P,U1,6,SCL*%
%TO.N,unconnected-(U1-SCL-Pad6)*%
X102870000Y-109220000D03*
%TO.P,U1,5,SDA*%
%TO.N,unconnected-(U1-SDA-Pad5)*%
X102870000Y-111760000D03*
%TO.P,U1,4,GND*%
%TO.N,GND*%
X102870000Y-114300000D03*
%TO.P,U1,3,GND*%
X102870000Y-116840000D03*
%TO.P,U1,2,RX*%
%TO.N,unconnected-(U1-RX-Pad2)*%
X102870000Y-119380000D03*
D11*
%TO.P,U1,1,TX*%
%TO.N,unconnected-(U1-TX-Pad1)*%
X102870000Y-121920000D03*
%TD*%
D12*
%TO.P,U2,7,VCC*%
%TO.N,VCC*%
X92202000Y-86588600D03*
%TO.P,U2,6,Nc*%
%TO.N,unconnected-(U2-Nc-Pad6)*%
X96266000Y-86588600D03*
%TO.P,U2,5,Nc*%
%TO.N,unconnected-(U2-Nc-Pad5)*%
X100330000Y-86588600D03*
%TO.P,U2,4,Data*%
%TO.N,Data*%
X100330000Y-88900000D03*
%TO.P,U2,3,Latch*%
%TO.N,Latch*%
X96266000Y-88900000D03*
%TO.P,U2,2,Clock*%
%TO.N,Clock*%
X92202000Y-88900000D03*
%TO.P,U2,1,GND*%
%TO.N,GND*%
X88138000Y-88900000D03*
%TD*%
D13*
%TO.N,VCC*%
X86131400Y-86588600D02*
X85090000Y-87630000D01*
X92202000Y-86588600D02*
X86131400Y-86588600D01*
X85090000Y-87630000D02*
X85090000Y-111760000D01*
X85090000Y-111760000D02*
X87630000Y-114300000D01*
%TO.N,Clock*%
X102362000Y-99060000D02*
X102870000Y-99060000D01*
X92202000Y-88900000D02*
X102362000Y-99060000D01*
%TO.N,Latch*%
X96266000Y-89916000D02*
X102870000Y-96520000D01*
X96266000Y-88900000D02*
X96266000Y-89916000D01*
%TO.N,Data*%
X100330000Y-91440000D02*
X102870000Y-93980000D01*
X100330000Y-88900000D02*
X100330000Y-91440000D01*
%TD*%
%TA.AperFunction,Conductor*%
%TO.N,GND*%
G36*
X112972539Y-69870185D02*
G01*
X113018294Y-69922989D01*
X113029500Y-69974500D01*
X113029500Y-123065500D01*
X113009815Y-123132539D01*
X112957011Y-123178294D01*
X112905500Y-123189500D01*
X104191460Y-123189500D01*
X104124421Y-123169815D01*
X104078666Y-123117011D01*
X104068722Y-123047853D01*
X104092193Y-122991189D01*
X104112603Y-122963924D01*
X104113796Y-122962331D01*
X104164091Y-122827483D01*
X104170500Y-122767873D01*
X104170499Y-121072128D01*
X104164091Y-121012517D01*
X104129567Y-120919954D01*
X104113797Y-120877671D01*
X104113793Y-120877664D01*
X104027547Y-120762455D01*
X104027544Y-120762452D01*
X103912335Y-120676206D01*
X103912328Y-120676202D01*
X103777482Y-120625908D01*
X103777483Y-120625908D01*
X103742404Y-120622137D01*
X103677853Y-120595399D01*
X103638005Y-120538006D01*
X103635512Y-120468181D01*
X103671165Y-120408092D01*
X103684539Y-120397272D01*
X103709140Y-120380046D01*
X103870045Y-120219141D01*
X103870047Y-120219139D01*
X104000568Y-120032734D01*
X104096739Y-119826496D01*
X104155635Y-119606692D01*
X104175468Y-119380002D01*
X107944647Y-119380002D01*
X107964021Y-119601457D01*
X107964022Y-119601465D01*
X108021558Y-119816191D01*
X108021559Y-119816193D01*
X108021560Y-119816196D01*
X108057701Y-119893700D01*
X108115511Y-120017676D01*
X108126055Y-120032734D01*
X108243023Y-120199781D01*
X108400219Y-120356977D01*
X108582323Y-120484488D01*
X108783804Y-120578440D01*
X108783811Y-120578442D01*
X108783814Y-120578443D01*
X108819313Y-120587955D01*
X108822422Y-120588875D01*
X108826745Y-120590279D01*
X108826755Y-120590283D01*
X108835158Y-120592200D01*
X108998537Y-120635978D01*
X109040378Y-120639638D01*
X109048778Y-120640957D01*
X109049179Y-120641049D01*
X109051917Y-120641674D01*
X109051939Y-120641678D01*
X109085563Y-120649351D01*
X109117475Y-120646383D01*
X109220000Y-120655353D01*
X109266024Y-120651326D01*
X109274186Y-120651154D01*
X109277093Y-120651285D01*
X109277098Y-120651284D01*
X109278448Y-120651345D01*
X109278461Y-120651345D01*
X109312036Y-120652853D01*
X109341627Y-120644712D01*
X109441463Y-120635978D01*
X109490183Y-120622923D01*
X109497886Y-120621377D01*
X109503173Y-120620661D01*
X109503175Y-120620660D01*
X109505724Y-120620315D01*
X109505742Y-120620312D01*
X109535510Y-120616279D01*
X109561954Y-120603692D01*
X109643440Y-120581858D01*
X109656186Y-120578443D01*
X109656188Y-120578442D01*
X109656196Y-120578440D01*
X109705821Y-120555299D01*
X109712841Y-120552534D01*
X109720150Y-120550160D01*
X109720156Y-120550156D01*
X109725442Y-120548439D01*
X109725454Y-120548435D01*
X109748940Y-120540803D01*
X109771599Y-120524626D01*
X109857677Y-120484488D01*
X109906124Y-120450564D01*
X109912284Y-120446768D01*
X109921053Y-120442050D01*
X109921056Y-120442047D01*
X109945587Y-120428847D01*
X109964028Y-120410019D01*
X110039781Y-120356977D01*
X110084779Y-120311978D01*
X110089935Y-120307370D01*
X110099423Y-120299805D01*
X110099424Y-120299802D01*
X110104636Y-120295647D01*
X110105654Y-120295231D01*
X110108146Y-120292849D01*
X110119298Y-120283955D01*
X110133294Y-120263463D01*
X110196977Y-120199781D01*
X110236105Y-120143901D01*
X110240196Y-120138676D01*
X110249528Y-120127996D01*
X110249531Y-120127990D01*
X110249709Y-120127787D01*
X110251954Y-120126356D01*
X110256873Y-120119586D01*
X110264621Y-120110717D01*
X110274165Y-120089544D01*
X110324488Y-120017677D01*
X110355324Y-119951548D01*
X110358270Y-119945991D01*
X110363608Y-119937057D01*
X110366634Y-119934257D01*
X110372270Y-119922556D01*
X110377005Y-119914630D01*
X110382296Y-119893706D01*
X110418440Y-119816196D01*
X110418440Y-119816194D01*
X110418442Y-119816191D01*
X110418442Y-119816190D01*
X110422272Y-119801892D01*
X110438583Y-119741021D01*
X110440406Y-119735337D01*
X110442697Y-119729233D01*
X110446010Y-119724827D01*
X110450628Y-119708097D01*
X110452953Y-119701902D01*
X110454384Y-119682051D01*
X110475978Y-119601463D01*
X110483198Y-119518930D01*
X110483951Y-119513317D01*
X110487444Y-119494072D01*
X110487444Y-119494067D01*
X110488311Y-119489291D01*
X110488314Y-119489269D01*
X110489694Y-119481660D01*
X110487998Y-119469304D01*
X110488112Y-119464216D01*
X110488326Y-119460314D01*
X110495353Y-119380000D01*
X110488326Y-119299690D01*
X110488112Y-119295780D01*
X110487999Y-119290697D01*
X110490353Y-119281969D01*
X110487746Y-119267600D01*
X110487741Y-119267568D01*
X110487444Y-119265932D01*
X110487444Y-119265928D01*
X110483951Y-119246682D01*
X110483198Y-119241069D01*
X110475978Y-119158537D01*
X110454383Y-119077944D01*
X110454742Y-119062863D01*
X110450629Y-119051905D01*
X110446892Y-119038363D01*
X110442686Y-119030736D01*
X110440410Y-119024671D01*
X110438572Y-119018938D01*
X110418442Y-118943811D01*
X110418439Y-118943802D01*
X110413636Y-118933502D01*
X110382296Y-118866294D01*
X110379838Y-118850109D01*
X110372267Y-118837437D01*
X110367728Y-118828013D01*
X110363606Y-118822938D01*
X110358279Y-118814022D01*
X110355309Y-118808419D01*
X110324488Y-118742324D01*
X110324487Y-118742322D01*
X110274166Y-118670456D01*
X110268534Y-118653757D01*
X110256872Y-118640409D01*
X110252927Y-118634979D01*
X110249715Y-118632217D01*
X110240193Y-118621318D01*
X110236100Y-118616093D01*
X110196977Y-118560219D01*
X110133295Y-118496537D01*
X110124268Y-118480005D01*
X110108145Y-118467148D01*
X110106158Y-118465248D01*
X110104641Y-118464354D01*
X110089944Y-118452634D01*
X110084754Y-118447996D01*
X110039782Y-118403023D01*
X109964029Y-118349981D01*
X109951536Y-118334352D01*
X109912297Y-118313237D01*
X109906110Y-118309424D01*
X109857682Y-118275515D01*
X109857680Y-118275514D01*
X109857679Y-118275513D01*
X109857677Y-118275512D01*
X109771599Y-118235373D01*
X109755732Y-118221402D01*
X109725007Y-118211418D01*
X109724998Y-118211416D01*
X109712844Y-118207465D01*
X109705801Y-118204690D01*
X109656195Y-118181559D01*
X109561952Y-118156307D01*
X109542955Y-118144728D01*
X109504197Y-118139477D01*
X109497891Y-118138622D01*
X109490165Y-118137070D01*
X109441467Y-118124023D01*
X109441465Y-118124022D01*
X109441463Y-118124022D01*
X109441461Y-118124021D01*
X109441457Y-118124021D01*
X109341623Y-118115287D01*
X109319904Y-118106791D01*
X109274190Y-118108844D01*
X109265998Y-118108670D01*
X109220004Y-118104647D01*
X109219998Y-118104647D01*
X109117463Y-118113617D01*
X109093582Y-118108817D01*
X109049180Y-118118950D01*
X109049179Y-118118951D01*
X109048786Y-118119040D01*
X109040391Y-118120359D01*
X108998540Y-118124021D01*
X108998534Y-118124022D01*
X108835172Y-118167796D01*
X108826744Y-118169719D01*
X108822408Y-118171127D01*
X108819315Y-118172043D01*
X108783806Y-118181558D01*
X108783803Y-118181559D01*
X108582323Y-118275512D01*
X108582319Y-118275514D01*
X108400217Y-118403023D01*
X108243023Y-118560217D01*
X108115514Y-118742319D01*
X108115512Y-118742323D01*
X108021561Y-118943800D01*
X107964022Y-119158535D01*
X107964021Y-119158542D01*
X107944647Y-119379997D01*
X107944647Y-119380002D01*
X104175468Y-119380002D01*
X104175468Y-119380000D01*
X104155635Y-119153308D01*
X104096739Y-118933504D01*
X104000568Y-118727266D01*
X103883602Y-118560220D01*
X103870045Y-118540858D01*
X103709141Y-118379954D01*
X103567220Y-118280581D01*
X103522734Y-118249432D01*
X103464132Y-118222105D01*
X103411694Y-118175933D01*
X103392543Y-118108739D01*
X103412759Y-118041858D01*
X103464135Y-117997341D01*
X103522482Y-117970133D01*
X103595472Y-117919025D01*
X103041568Y-117365121D01*
X103158458Y-117314349D01*
X103275739Y-117218934D01*
X103362928Y-117095415D01*
X103393354Y-117009801D01*
X103949025Y-117565472D01*
X104000136Y-117492478D01*
X104096264Y-117286331D01*
X104096269Y-117286317D01*
X104155139Y-117066610D01*
X104155141Y-117066599D01*
X104174966Y-116840002D01*
X104174966Y-116839997D01*
X104155141Y-116613400D01*
X104155139Y-116613389D01*
X104096269Y-116393682D01*
X104096265Y-116393673D01*
X104000133Y-116187516D01*
X104000131Y-116187512D01*
X103949026Y-116114526D01*
X103949025Y-116114526D01*
X103395929Y-116667622D01*
X103393116Y-116654085D01*
X103323558Y-116519844D01*
X103220362Y-116409348D01*
X103091181Y-116330791D01*
X103039996Y-116316449D01*
X103595472Y-115760974D01*
X103595471Y-115760973D01*
X103522483Y-115709866D01*
X103522481Y-115709865D01*
X103463543Y-115682382D01*
X103411104Y-115636210D01*
X103391952Y-115569016D01*
X103412168Y-115502135D01*
X103463544Y-115457618D01*
X103522478Y-115430136D01*
X103595472Y-115379025D01*
X103041568Y-114825121D01*
X103158458Y-114774349D01*
X103275739Y-114678934D01*
X103362928Y-114555415D01*
X103393354Y-114469801D01*
X103949025Y-115025472D01*
X104000136Y-114952478D01*
X104096264Y-114746331D01*
X104096269Y-114746317D01*
X104155139Y-114526610D01*
X104155141Y-114526599D01*
X104174966Y-114300002D01*
X104174966Y-114299997D01*
X104155141Y-114073400D01*
X104155139Y-114073389D01*
X104096269Y-113853682D01*
X104096265Y-113853673D01*
X104000133Y-113647516D01*
X104000131Y-113647512D01*
X103949026Y-113574526D01*
X103949025Y-113574526D01*
X103395929Y-114127622D01*
X103393116Y-114114085D01*
X103323558Y-113979844D01*
X103220362Y-113869348D01*
X103091181Y-113790791D01*
X103039996Y-113776449D01*
X103595472Y-113220974D01*
X103595471Y-113220973D01*
X103522483Y-113169866D01*
X103522481Y-113169865D01*
X103464133Y-113142657D01*
X103411694Y-113096484D01*
X103392542Y-113029291D01*
X103412758Y-112962410D01*
X103464129Y-112917895D01*
X103522734Y-112890568D01*
X103709139Y-112760047D01*
X103870047Y-112599139D01*
X104000568Y-112412734D01*
X104096739Y-112206496D01*
X104155635Y-111986692D01*
X104175468Y-111760000D01*
X104155635Y-111533308D01*
X104096739Y-111313504D01*
X104000568Y-111107266D01*
X103870047Y-110920861D01*
X103870045Y-110920858D01*
X103709141Y-110759954D01*
X103522734Y-110629432D01*
X103522728Y-110629429D01*
X103464725Y-110602382D01*
X103412285Y-110556210D01*
X103393133Y-110489017D01*
X103413348Y-110422135D01*
X103464725Y-110377618D01*
X103522734Y-110350568D01*
X103709139Y-110220047D01*
X103870047Y-110059139D01*
X104000568Y-109872734D01*
X104096739Y-109666496D01*
X104155635Y-109446692D01*
X104175468Y-109220000D01*
X104155635Y-108993308D01*
X104096739Y-108773504D01*
X104000568Y-108567266D01*
X103870047Y-108380861D01*
X103870045Y-108380858D01*
X103709141Y-108219954D01*
X103522735Y-108089433D01*
X103522736Y-108089433D01*
X103522734Y-108089432D01*
X103464722Y-108062380D01*
X103412284Y-108016208D01*
X103393133Y-107949014D01*
X103413349Y-107882133D01*
X103464721Y-107837619D01*
X103522734Y-107810568D01*
X103709139Y-107680047D01*
X103870047Y-107519139D01*
X104000568Y-107332734D01*
X104096739Y-107126496D01*
X104155635Y-106906692D01*
X104175468Y-106680000D01*
X104155635Y-106453308D01*
X104096739Y-106233504D01*
X104000568Y-106027266D01*
X103870047Y-105840861D01*
X103870045Y-105840858D01*
X103709141Y-105679954D01*
X103522735Y-105549433D01*
X103522736Y-105549433D01*
X103522734Y-105549432D01*
X103464722Y-105522380D01*
X103412284Y-105476208D01*
X103393133Y-105409014D01*
X103413349Y-105342133D01*
X103464721Y-105297619D01*
X103522734Y-105270568D01*
X103709139Y-105140047D01*
X103870047Y-104979139D01*
X104000568Y-104792734D01*
X104096739Y-104586496D01*
X104155635Y-104366692D01*
X104175468Y-104140000D01*
X104155635Y-103913308D01*
X104096739Y-103693504D01*
X104000568Y-103487266D01*
X103870047Y-103300861D01*
X103870045Y-103300858D01*
X103709141Y-103139954D01*
X103522735Y-103009433D01*
X103522736Y-103009433D01*
X103522734Y-103009432D01*
X103464722Y-102982380D01*
X103412284Y-102936208D01*
X103393133Y-102869014D01*
X103413349Y-102802133D01*
X103464721Y-102757619D01*
X103522734Y-102730568D01*
X103709139Y-102600047D01*
X103870047Y-102439139D01*
X104000568Y-102252734D01*
X104096739Y-102046496D01*
X104155635Y-101826692D01*
X104175468Y-101600000D01*
X104155635Y-101373308D01*
X104096739Y-101153504D01*
X104000568Y-100947266D01*
X103870047Y-100760861D01*
X103870045Y-100760858D01*
X103709141Y-100599954D01*
X103522734Y-100469432D01*
X103522728Y-100469429D01*
X103464725Y-100442382D01*
X103412285Y-100396210D01*
X103393133Y-100329017D01*
X103413348Y-100262135D01*
X103464725Y-100217618D01*
X103522734Y-100190568D01*
X103709139Y-100060047D01*
X103870047Y-99899139D01*
X104000568Y-99712734D01*
X104096739Y-99506496D01*
X104155635Y-99286692D01*
X104175468Y-99060000D01*
X104155635Y-98833308D01*
X104096739Y-98613504D01*
X104000568Y-98407266D01*
X103870047Y-98220861D01*
X103870045Y-98220858D01*
X103709141Y-98059954D01*
X103522734Y-97929432D01*
X103522728Y-97929429D01*
X103464725Y-97902382D01*
X103412285Y-97856210D01*
X103393133Y-97789017D01*
X103413348Y-97722135D01*
X103464725Y-97677618D01*
X103522734Y-97650568D01*
X103709139Y-97520047D01*
X103870047Y-97359139D01*
X104000568Y-97172734D01*
X104096739Y-96966496D01*
X104155635Y-96746692D01*
X104175468Y-96520000D01*
X104155635Y-96293308D01*
X104096739Y-96073504D01*
X104000568Y-95867266D01*
X103870047Y-95680861D01*
X103870045Y-95680858D01*
X103709141Y-95519954D01*
X103522734Y-95389432D01*
X103522728Y-95389429D01*
X103464725Y-95362382D01*
X103412285Y-95316210D01*
X103393133Y-95249017D01*
X103413348Y-95182135D01*
X103464725Y-95137618D01*
X103522734Y-95110568D01*
X103709139Y-94980047D01*
X103870047Y-94819139D01*
X104000568Y-94632734D01*
X104096739Y-94426496D01*
X104155635Y-94206692D01*
X104175468Y-93980000D01*
X104155635Y-93753308D01*
X104096739Y-93533504D01*
X104000568Y-93327266D01*
X103870047Y-93140861D01*
X103870045Y-93140858D01*
X103709141Y-92979954D01*
X103522734Y-92849432D01*
X103522732Y-92849431D01*
X103316497Y-92753261D01*
X103316488Y-92753258D01*
X103096697Y-92694366D01*
X103096693Y-92694365D01*
X103096692Y-92694365D01*
X103096691Y-92694364D01*
X103096686Y-92694364D01*
X102870002Y-92674532D01*
X102869999Y-92674532D01*
X102643313Y-92694364D01*
X102643296Y-92694367D01*
X102574949Y-92712680D01*
X102505099Y-92711016D01*
X102455177Y-92680586D01*
X100991819Y-91217227D01*
X100958334Y-91155904D01*
X100955500Y-91129546D01*
X100955500Y-90502675D01*
X100975185Y-90435636D01*
X101027989Y-90389881D01*
X101032048Y-90388114D01*
X101058639Y-90377099D01*
X101078441Y-90368897D01*
X101299012Y-90233731D01*
X101495724Y-90065724D01*
X101663731Y-89869012D01*
X101798897Y-89648441D01*
X101897895Y-89409440D01*
X101958285Y-89157895D01*
X101978582Y-88900000D01*
X101958285Y-88642105D01*
X101897895Y-88390560D01*
X101798897Y-88151559D01*
X101798897Y-88151558D01*
X101700102Y-87990341D01*
X101663731Y-87930988D01*
X101663730Y-87930987D01*
X101663729Y-87930985D01*
X101573065Y-87824831D01*
X101544494Y-87761069D01*
X101554931Y-87691984D01*
X101573062Y-87663771D01*
X101663731Y-87557612D01*
X101798897Y-87337041D01*
X101897895Y-87098040D01*
X101958285Y-86846495D01*
X101978582Y-86588600D01*
X101960591Y-86360002D01*
X107944647Y-86360002D01*
X107964021Y-86581457D01*
X107964022Y-86581465D01*
X108021558Y-86796191D01*
X108021559Y-86796193D01*
X108021560Y-86796196D01*
X108045015Y-86846495D01*
X108115511Y-86997676D01*
X108115513Y-86997679D01*
X108243023Y-87179781D01*
X108400219Y-87336977D01*
X108582323Y-87464488D01*
X108783804Y-87558440D01*
X108783811Y-87558442D01*
X108783814Y-87558443D01*
X108819313Y-87567955D01*
X108822422Y-87568875D01*
X108826745Y-87570279D01*
X108826755Y-87570283D01*
X108835158Y-87572200D01*
X108998537Y-87615978D01*
X109040378Y-87619638D01*
X109048778Y-87620957D01*
X109049179Y-87621049D01*
X109051917Y-87621674D01*
X109051939Y-87621678D01*
X109085563Y-87629351D01*
X109117475Y-87626383D01*
X109220000Y-87635353D01*
X109266024Y-87631326D01*
X109274186Y-87631154D01*
X109277093Y-87631285D01*
X109277098Y-87631284D01*
X109278448Y-87631345D01*
X109278461Y-87631345D01*
X109312036Y-87632853D01*
X109341627Y-87624712D01*
X109441463Y-87615978D01*
X109490183Y-87602923D01*
X109497886Y-87601377D01*
X109503173Y-87600661D01*
X109503175Y-87600660D01*
X109505724Y-87600315D01*
X109505742Y-87600312D01*
X109535510Y-87596279D01*
X109561954Y-87583692D01*
X109638600Y-87563154D01*
X109656186Y-87558443D01*
X109656188Y-87558442D01*
X109656196Y-87558440D01*
X109705821Y-87535299D01*
X109712841Y-87532534D01*
X109720150Y-87530160D01*
X109720156Y-87530156D01*
X109725442Y-87528439D01*
X109725454Y-87528435D01*
X109748940Y-87520803D01*
X109771599Y-87504626D01*
X109857677Y-87464488D01*
X109906124Y-87430564D01*
X109912284Y-87426768D01*
X109921053Y-87422050D01*
X109921056Y-87422047D01*
X109945587Y-87408847D01*
X109964028Y-87390019D01*
X110039781Y-87336977D01*
X110084779Y-87291978D01*
X110089935Y-87287370D01*
X110099423Y-87279805D01*
X110099424Y-87279802D01*
X110104636Y-87275647D01*
X110105654Y-87275231D01*
X110108146Y-87272849D01*
X110119298Y-87263955D01*
X110133294Y-87243463D01*
X110196977Y-87179781D01*
X110236105Y-87123901D01*
X110240196Y-87118676D01*
X110249528Y-87107996D01*
X110249531Y-87107990D01*
X110249709Y-87107787D01*
X110251954Y-87106356D01*
X110256873Y-87099586D01*
X110264621Y-87090717D01*
X110274165Y-87069544D01*
X110324488Y-86997677D01*
X110355324Y-86931548D01*
X110358270Y-86925991D01*
X110363608Y-86917057D01*
X110366634Y-86914257D01*
X110372270Y-86902556D01*
X110377005Y-86894630D01*
X110382296Y-86873706D01*
X110418440Y-86796196D01*
X110418440Y-86796194D01*
X110418442Y-86796191D01*
X110418442Y-86796190D01*
X110422272Y-86781892D01*
X110438583Y-86721021D01*
X110440406Y-86715337D01*
X110442697Y-86709233D01*
X110446010Y-86704827D01*
X110450628Y-86688097D01*
X110452953Y-86681902D01*
X110454384Y-86662051D01*
X110475978Y-86581463D01*
X110483198Y-86498930D01*
X110483951Y-86493317D01*
X110487444Y-86474072D01*
X110487444Y-86474067D01*
X110488311Y-86469291D01*
X110488314Y-86469269D01*
X110489694Y-86461660D01*
X110487998Y-86449304D01*
X110488112Y-86444216D01*
X110488326Y-86440314D01*
X110495353Y-86360000D01*
X110488326Y-86279690D01*
X110488112Y-86275780D01*
X110487999Y-86270697D01*
X110490353Y-86261969D01*
X110487746Y-86247600D01*
X110487741Y-86247568D01*
X110487444Y-86245932D01*
X110487444Y-86245928D01*
X110483951Y-86226682D01*
X110483198Y-86221069D01*
X110475978Y-86138537D01*
X110454383Y-86057944D01*
X110454742Y-86042863D01*
X110450629Y-86031905D01*
X110446892Y-86018363D01*
X110442686Y-86010736D01*
X110440410Y-86004671D01*
X110438572Y-85998938D01*
X110437540Y-85995088D01*
X110418440Y-85923804D01*
X110382296Y-85846294D01*
X110379838Y-85830109D01*
X110372267Y-85817437D01*
X110367728Y-85808013D01*
X110363606Y-85802938D01*
X110358279Y-85794022D01*
X110355309Y-85788419D01*
X110324488Y-85722324D01*
X110324487Y-85722322D01*
X110274166Y-85650456D01*
X110268534Y-85633757D01*
X110256872Y-85620409D01*
X110252927Y-85614979D01*
X110249715Y-85612217D01*
X110240193Y-85601318D01*
X110236100Y-85596093D01*
X110196977Y-85540219D01*
X110133295Y-85476537D01*
X110124268Y-85460005D01*
X110108145Y-85447148D01*
X110106158Y-85445248D01*
X110104641Y-85444354D01*
X110089944Y-85432634D01*
X110084754Y-85427996D01*
X110039782Y-85383023D01*
X109964029Y-85329981D01*
X109951536Y-85314352D01*
X109912297Y-85293237D01*
X109906110Y-85289424D01*
X109857682Y-85255515D01*
X109857680Y-85255514D01*
X109857679Y-85255513D01*
X109857677Y-85255512D01*
X109771599Y-85215373D01*
X109755732Y-85201402D01*
X109725007Y-85191418D01*
X109724998Y-85191416D01*
X109712844Y-85187465D01*
X109705801Y-85184690D01*
X109656195Y-85161559D01*
X109561952Y-85136307D01*
X109542955Y-85124728D01*
X109504197Y-85119477D01*
X109497891Y-85118622D01*
X109490165Y-85117070D01*
X109441467Y-85104023D01*
X109441465Y-85104022D01*
X109441463Y-85104022D01*
X109441461Y-85104021D01*
X109441457Y-85104021D01*
X109341623Y-85095287D01*
X109319904Y-85086791D01*
X109274190Y-85088844D01*
X109265998Y-85088670D01*
X109220004Y-85084647D01*
X109219998Y-85084647D01*
X109117463Y-85093617D01*
X109093582Y-85088817D01*
X109049180Y-85098950D01*
X109049179Y-85098951D01*
X109048786Y-85099040D01*
X109040391Y-85100359D01*
X108998540Y-85104021D01*
X108998534Y-85104022D01*
X108835172Y-85147796D01*
X108826744Y-85149719D01*
X108822408Y-85151127D01*
X108819315Y-85152043D01*
X108783806Y-85161558D01*
X108783803Y-85161559D01*
X108582323Y-85255512D01*
X108582319Y-85255514D01*
X108400217Y-85383023D01*
X108243023Y-85540217D01*
X108115514Y-85722319D01*
X108115512Y-85722323D01*
X108021561Y-85923800D01*
X107964022Y-86138535D01*
X107964021Y-86138542D01*
X107944647Y-86359997D01*
X107944647Y-86360002D01*
X101960591Y-86360002D01*
X101958285Y-86330705D01*
X101897895Y-86079160D01*
X101818114Y-85886552D01*
X101798897Y-85840158D01*
X101663732Y-85619590D01*
X101663729Y-85619585D01*
X101541557Y-85476540D01*
X101495724Y-85422876D01*
X101368658Y-85314352D01*
X101299014Y-85254870D01*
X101299009Y-85254867D01*
X101078441Y-85119702D01*
X100839442Y-85020706D01*
X100839444Y-85020706D01*
X100839440Y-85020705D01*
X100839436Y-85020704D01*
X100839430Y-85020702D01*
X100587898Y-84960315D01*
X100394473Y-84945092D01*
X100330000Y-84940018D01*
X100329999Y-84940018D01*
X100072101Y-84960315D01*
X99820569Y-85020702D01*
X99820557Y-85020706D01*
X99581558Y-85119702D01*
X99360990Y-85254867D01*
X99360985Y-85254870D01*
X99164276Y-85422876D01*
X98996270Y-85619585D01*
X98996267Y-85619590D01*
X98861102Y-85840158D01*
X98762106Y-86079157D01*
X98762102Y-86079169D01*
X98701715Y-86330701D01*
X98681418Y-86588600D01*
X98701715Y-86846498D01*
X98762102Y-87098030D01*
X98762104Y-87098036D01*
X98762105Y-87098040D01*
X98766229Y-87107996D01*
X98861102Y-87337041D01*
X98996267Y-87557609D01*
X98996275Y-87557621D01*
X99086933Y-87663768D01*
X99115504Y-87727529D01*
X99105067Y-87796615D01*
X99086935Y-87824829D01*
X98996269Y-87930988D01*
X98996263Y-87930996D01*
X98861102Y-88151558D01*
X98762106Y-88390557D01*
X98762102Y-88390569D01*
X98701715Y-88642101D01*
X98681418Y-88900000D01*
X98701715Y-89157898D01*
X98762102Y-89409430D01*
X98762106Y-89409442D01*
X98861102Y-89648441D01*
X98996267Y-89869009D01*
X98996270Y-89869014D01*
X99072426Y-89958181D01*
X99164276Y-90065724D01*
X99270360Y-90156328D01*
X99360985Y-90233729D01*
X99360990Y-90233732D01*
X99581559Y-90368897D01*
X99581561Y-90368898D01*
X99627952Y-90388114D01*
X99682356Y-90431954D01*
X99704421Y-90498248D01*
X99704500Y-90502675D01*
X99704500Y-91357255D01*
X99702775Y-91372872D01*
X99703061Y-91372899D01*
X99702326Y-91380665D01*
X99704500Y-91449814D01*
X99704500Y-91479343D01*
X99704501Y-91479360D01*
X99705368Y-91486231D01*
X99705826Y-91492050D01*
X99707290Y-91538624D01*
X99707291Y-91538627D01*
X99712880Y-91557867D01*
X99716824Y-91576911D01*
X99719336Y-91596791D01*
X99736490Y-91640119D01*
X99738382Y-91645647D01*
X99751381Y-91690388D01*
X99761580Y-91707634D01*
X99770138Y-91725103D01*
X99777514Y-91743732D01*
X99804898Y-91781423D01*
X99808106Y-91786307D01*
X99831827Y-91826416D01*
X99831833Y-91826424D01*
X99845990Y-91840580D01*
X99858628Y-91855376D01*
X99870405Y-91871586D01*
X99870406Y-91871587D01*
X99906309Y-91901288D01*
X99910620Y-91905210D01*
X101332674Y-93327265D01*
X101570586Y-93565177D01*
X101604071Y-93626500D01*
X101602680Y-93684949D01*
X101584367Y-93753296D01*
X101584364Y-93753313D01*
X101564532Y-93979999D01*
X101564532Y-93980002D01*
X101568390Y-94024102D01*
X101554623Y-94092602D01*
X101506008Y-94142785D01*
X101437979Y-94158718D01*
X101372135Y-94135342D01*
X101357181Y-94122590D01*
X97452242Y-90217651D01*
X97418757Y-90156328D01*
X97423741Y-90086636D01*
X97445633Y-90049438D01*
X97599729Y-89869014D01*
X97599731Y-89869012D01*
X97734897Y-89648441D01*
X97833895Y-89409440D01*
X97894285Y-89157895D01*
X97914582Y-88900000D01*
X97894285Y-88642105D01*
X97833895Y-88390560D01*
X97734897Y-88151559D01*
X97734897Y-88151558D01*
X97636102Y-87990341D01*
X97599731Y-87930988D01*
X97599730Y-87930987D01*
X97599729Y-87930985D01*
X97509065Y-87824831D01*
X97480494Y-87761069D01*
X97490931Y-87691984D01*
X97509062Y-87663771D01*
X97599731Y-87557612D01*
X97734897Y-87337041D01*
X97833895Y-87098040D01*
X97894285Y-86846495D01*
X97914582Y-86588600D01*
X97894285Y-86330705D01*
X97833895Y-86079160D01*
X97754114Y-85886552D01*
X97734897Y-85840158D01*
X97599732Y-85619590D01*
X97599729Y-85619585D01*
X97477557Y-85476540D01*
X97431724Y-85422876D01*
X97304658Y-85314352D01*
X97235014Y-85254870D01*
X97235009Y-85254867D01*
X97014441Y-85119702D01*
X96775442Y-85020706D01*
X96775444Y-85020706D01*
X96775440Y-85020705D01*
X96775436Y-85020704D01*
X96775430Y-85020702D01*
X96523898Y-84960315D01*
X96266000Y-84940018D01*
X96008101Y-84960315D01*
X95756569Y-85020702D01*
X95756557Y-85020706D01*
X95517558Y-85119702D01*
X95296990Y-85254867D01*
X95296985Y-85254870D01*
X95100276Y-85422876D01*
X94932270Y-85619585D01*
X94932267Y-85619590D01*
X94797102Y-85840158D01*
X94698106Y-86079157D01*
X94698102Y-86079169D01*
X94637715Y-86330701D01*
X94617418Y-86588600D01*
X94637715Y-86846498D01*
X94698102Y-87098030D01*
X94698104Y-87098036D01*
X94698105Y-87098040D01*
X94702229Y-87107996D01*
X94797102Y-87337041D01*
X94932267Y-87557609D01*
X94932275Y-87557621D01*
X95022933Y-87663768D01*
X95051504Y-87727529D01*
X95041067Y-87796615D01*
X95022935Y-87824829D01*
X94932269Y-87930988D01*
X94932263Y-87930996D01*
X94797102Y-88151558D01*
X94698106Y-88390557D01*
X94698102Y-88390569D01*
X94637715Y-88642101D01*
X94617418Y-88900000D01*
X94637715Y-89157898D01*
X94698102Y-89409430D01*
X94698106Y-89409442D01*
X94797102Y-89648441D01*
X94932267Y-89869009D01*
X94932270Y-89869014D01*
X95008426Y-89958181D01*
X95100276Y-90065724D01*
X95206360Y-90156328D01*
X95296985Y-90233729D01*
X95296990Y-90233732D01*
X95517558Y-90368897D01*
X95602057Y-90403897D01*
X95756560Y-90467895D01*
X95756570Y-90467897D01*
X95756572Y-90467898D01*
X95955136Y-90515568D01*
X96013871Y-90548461D01*
X101570586Y-96105177D01*
X101604071Y-96166500D01*
X101602680Y-96224949D01*
X101584367Y-96293296D01*
X101584364Y-96293313D01*
X101564532Y-96519999D01*
X101564532Y-96520001D01*
X101584364Y-96746686D01*
X101584366Y-96746697D01*
X101643258Y-96966488D01*
X101643261Y-96966496D01*
X101739432Y-97172734D01*
X101814282Y-97279632D01*
X101836609Y-97345837D01*
X101819599Y-97413604D01*
X101768651Y-97461417D01*
X101699941Y-97474095D01*
X101635284Y-97447613D01*
X101625026Y-97438435D01*
X93777557Y-89590966D01*
X93744072Y-89529643D01*
X93749056Y-89459951D01*
X93750651Y-89455898D01*
X93769895Y-89409440D01*
X93830285Y-89157895D01*
X93850582Y-88900000D01*
X93830285Y-88642105D01*
X93769895Y-88390560D01*
X93670897Y-88151559D01*
X93670897Y-88151558D01*
X93572102Y-87990341D01*
X93535731Y-87930988D01*
X93535730Y-87930987D01*
X93535729Y-87930985D01*
X93445065Y-87824831D01*
X93416494Y-87761069D01*
X93426931Y-87691984D01*
X93445062Y-87663771D01*
X93535731Y-87557612D01*
X93670897Y-87337041D01*
X93769895Y-87098040D01*
X93830285Y-86846495D01*
X93850582Y-86588600D01*
X93830285Y-86330705D01*
X93769895Y-86079160D01*
X93690114Y-85886552D01*
X93670897Y-85840158D01*
X93535732Y-85619590D01*
X93535729Y-85619585D01*
X93413557Y-85476540D01*
X93367724Y-85422876D01*
X93240658Y-85314352D01*
X93171014Y-85254870D01*
X93171009Y-85254867D01*
X92950441Y-85119702D01*
X92711442Y-85020706D01*
X92711444Y-85020706D01*
X92711440Y-85020705D01*
X92711436Y-85020704D01*
X92711430Y-85020702D01*
X92459898Y-84960315D01*
X92266473Y-84945092D01*
X92202000Y-84940018D01*
X92201999Y-84940018D01*
X91944101Y-84960315D01*
X91692569Y-85020702D01*
X91692557Y-85020706D01*
X91453558Y-85119702D01*
X91232990Y-85254867D01*
X91232985Y-85254870D01*
X91036276Y-85422876D01*
X90868270Y-85619585D01*
X90868267Y-85619590D01*
X90733102Y-85840159D01*
X90733101Y-85840161D01*
X90713886Y-85886552D01*
X90670046Y-85940956D01*
X90603752Y-85963021D01*
X90599325Y-85963100D01*
X86214143Y-85963100D01*
X86198522Y-85961375D01*
X86198496Y-85961661D01*
X86190734Y-85960927D01*
X86190733Y-85960927D01*
X86121586Y-85963100D01*
X86092049Y-85963100D01*
X86085166Y-85963969D01*
X86079349Y-85964426D01*
X86032773Y-85965890D01*
X86013529Y-85971481D01*
X85994479Y-85975425D01*
X85974611Y-85977934D01*
X85931284Y-85995088D01*
X85925758Y-85996979D01*
X85881014Y-86009979D01*
X85881010Y-86009981D01*
X85863766Y-86020179D01*
X85846305Y-86028733D01*
X85827674Y-86036110D01*
X85827662Y-86036117D01*
X85789970Y-86063502D01*
X85785087Y-86066709D01*
X85744980Y-86090429D01*
X85730814Y-86104595D01*
X85716024Y-86117227D01*
X85699814Y-86129004D01*
X85699811Y-86129007D01*
X85670110Y-86164909D01*
X85666177Y-86169231D01*
X84706208Y-87129199D01*
X84693951Y-87139020D01*
X84694134Y-87139241D01*
X84688123Y-87144213D01*
X84640772Y-87194636D01*
X84619889Y-87215519D01*
X84619877Y-87215532D01*
X84615621Y-87221017D01*
X84611837Y-87225447D01*
X84579937Y-87259418D01*
X84579936Y-87259420D01*
X84570284Y-87276976D01*
X84559610Y-87293226D01*
X84547329Y-87309061D01*
X84547324Y-87309068D01*
X84528815Y-87351838D01*
X84526245Y-87357084D01*
X84503803Y-87397906D01*
X84498822Y-87417307D01*
X84492521Y-87435710D01*
X84484562Y-87454102D01*
X84484561Y-87454105D01*
X84477271Y-87500127D01*
X84476087Y-87505846D01*
X84464501Y-87550972D01*
X84464500Y-87550982D01*
X84464500Y-87571016D01*
X84462973Y-87590413D01*
X84459840Y-87610196D01*
X84461834Y-87631285D01*
X84464225Y-87656583D01*
X84464500Y-87662421D01*
X84464500Y-111677255D01*
X84462775Y-111692872D01*
X84463061Y-111692899D01*
X84462326Y-111700665D01*
X84464500Y-111769814D01*
X84464500Y-111799343D01*
X84464501Y-111799360D01*
X84465368Y-111806231D01*
X84465826Y-111812050D01*
X84467290Y-111858624D01*
X84467291Y-111858627D01*
X84472880Y-111877867D01*
X84476824Y-111896911D01*
X84477542Y-111902590D01*
X84479336Y-111916791D01*
X84496490Y-111960119D01*
X84498382Y-111965647D01*
X84511381Y-112010388D01*
X84521580Y-112027634D01*
X84530138Y-112045103D01*
X84537514Y-112063732D01*
X84564898Y-112101423D01*
X84568106Y-112106307D01*
X84591827Y-112146416D01*
X84591833Y-112146424D01*
X84605990Y-112160580D01*
X84618627Y-112175375D01*
X84630406Y-112191587D01*
X84648418Y-112206488D01*
X84666309Y-112221288D01*
X84670620Y-112225210D01*
X86019935Y-113574526D01*
X86330586Y-113885177D01*
X86364071Y-113946500D01*
X86362680Y-114004949D01*
X86344367Y-114073296D01*
X86344364Y-114073313D01*
X86324532Y-114299999D01*
X86324532Y-114300001D01*
X86344364Y-114526686D01*
X86344366Y-114526697D01*
X86403258Y-114746488D01*
X86403261Y-114746497D01*
X86499431Y-114952732D01*
X86499432Y-114952734D01*
X86629954Y-115139141D01*
X86790858Y-115300045D01*
X86790861Y-115300047D01*
X86977266Y-115430568D01*
X87035275Y-115457618D01*
X87087714Y-115503791D01*
X87106866Y-115570984D01*
X87086650Y-115637865D01*
X87035275Y-115682382D01*
X86977267Y-115709431D01*
X86977265Y-115709432D01*
X86790858Y-115839954D01*
X86629954Y-116000858D01*
X86499432Y-116187265D01*
X86499431Y-116187267D01*
X86403261Y-116393502D01*
X86403258Y-116393511D01*
X86344366Y-116613302D01*
X86344364Y-116613313D01*
X86324532Y-116839998D01*
X86324532Y-116840001D01*
X86344364Y-117066686D01*
X86344366Y-117066697D01*
X86403258Y-117286488D01*
X86403261Y-117286497D01*
X86499431Y-117492732D01*
X86499432Y-117492734D01*
X86629954Y-117679141D01*
X86790858Y-117840045D01*
X86790861Y-117840047D01*
X86977266Y-117970568D01*
X87035865Y-117997893D01*
X87088305Y-118044065D01*
X87107457Y-118111258D01*
X87087242Y-118178139D01*
X87035867Y-118222657D01*
X86977511Y-118249869D01*
X86904527Y-118300972D01*
X86904526Y-118300973D01*
X87458432Y-118854878D01*
X87341542Y-118905651D01*
X87224261Y-119001066D01*
X87137072Y-119124585D01*
X87106645Y-119210198D01*
X86550973Y-118654526D01*
X86550972Y-118654527D01*
X86499868Y-118727513D01*
X86403734Y-118933673D01*
X86403730Y-118933682D01*
X86344860Y-119153389D01*
X86344858Y-119153400D01*
X86325034Y-119379997D01*
X86325034Y-119380002D01*
X86344858Y-119606599D01*
X86344860Y-119606610D01*
X86403730Y-119826317D01*
X86403734Y-119826326D01*
X86499865Y-120032481D01*
X86499866Y-120032483D01*
X86550973Y-120105471D01*
X86550974Y-120105472D01*
X87104070Y-119552375D01*
X87106884Y-119565915D01*
X87176442Y-119700156D01*
X87279638Y-119810652D01*
X87408819Y-119889209D01*
X87460002Y-119903549D01*
X86904526Y-120459025D01*
X86904526Y-120459026D01*
X86977512Y-120510131D01*
X86977520Y-120510135D01*
X87035865Y-120537342D01*
X87088305Y-120583514D01*
X87107457Y-120650707D01*
X87087242Y-120717589D01*
X87035867Y-120762105D01*
X86977266Y-120789432D01*
X86977264Y-120789433D01*
X86790858Y-120919954D01*
X86629954Y-121080858D01*
X86499432Y-121267265D01*
X86499431Y-121267267D01*
X86403261Y-121473502D01*
X86403258Y-121473511D01*
X86344366Y-121693302D01*
X86344364Y-121693313D01*
X86324532Y-121919998D01*
X86324532Y-121920001D01*
X86344364Y-122146686D01*
X86344366Y-122146697D01*
X86403258Y-122366488D01*
X86403261Y-122366497D01*
X86499431Y-122572732D01*
X86499432Y-122572734D01*
X86629954Y-122759141D01*
X86790855Y-122920042D01*
X86790858Y-122920044D01*
X86790861Y-122920047D01*
X86853528Y-122963926D01*
X86897151Y-123018501D01*
X86904345Y-123087999D01*
X86872823Y-123150354D01*
X86812593Y-123185769D01*
X86782403Y-123189500D01*
X76324500Y-123189500D01*
X76257461Y-123169815D01*
X76211706Y-123117011D01*
X76200500Y-123065500D01*
X76200500Y-119380002D01*
X78734647Y-119380002D01*
X78754021Y-119601457D01*
X78754022Y-119601465D01*
X78811558Y-119816191D01*
X78811559Y-119816193D01*
X78811560Y-119816196D01*
X78847701Y-119893700D01*
X78905511Y-120017676D01*
X78916055Y-120032734D01*
X79033023Y-120199781D01*
X79190219Y-120356977D01*
X79372323Y-120484488D01*
X79573804Y-120578440D01*
X79573811Y-120578442D01*
X79573814Y-120578443D01*
X79609313Y-120587955D01*
X79612422Y-120588875D01*
X79616745Y-120590279D01*
X79616755Y-120590283D01*
X79625158Y-120592200D01*
X79788537Y-120635978D01*
X79830378Y-120639638D01*
X79838778Y-120640957D01*
X79839179Y-120641049D01*
X79841917Y-120641674D01*
X79841939Y-120641678D01*
X79875563Y-120649351D01*
X79907475Y-120646383D01*
X80010000Y-120655353D01*
X80056024Y-120651326D01*
X80064186Y-120651154D01*
X80067093Y-120651285D01*
X80067098Y-120651284D01*
X80068448Y-120651345D01*
X80068461Y-120651345D01*
X80102036Y-120652853D01*
X80131627Y-120644712D01*
X80231463Y-120635978D01*
X80280183Y-120622923D01*
X80287886Y-120621377D01*
X80293173Y-120620661D01*
X80293175Y-120620660D01*
X80295724Y-120620315D01*
X80295742Y-120620312D01*
X80325510Y-120616279D01*
X80351954Y-120603692D01*
X80433440Y-120581858D01*
X80446186Y-120578443D01*
X80446188Y-120578442D01*
X80446196Y-120578440D01*
X80495821Y-120555299D01*
X80502841Y-120552534D01*
X80510150Y-120550160D01*
X80510156Y-120550156D01*
X80515442Y-120548439D01*
X80515454Y-120548435D01*
X80538940Y-120540803D01*
X80561599Y-120524626D01*
X80647677Y-120484488D01*
X80696124Y-120450564D01*
X80702284Y-120446768D01*
X80711053Y-120442050D01*
X80711056Y-120442047D01*
X80735587Y-120428847D01*
X80754028Y-120410019D01*
X80829781Y-120356977D01*
X80874779Y-120311978D01*
X80879935Y-120307370D01*
X80889423Y-120299805D01*
X80889424Y-120299802D01*
X80894636Y-120295647D01*
X80895654Y-120295231D01*
X80898146Y-120292849D01*
X80909298Y-120283955D01*
X80923294Y-120263463D01*
X80986977Y-120199781D01*
X81026105Y-120143901D01*
X81030196Y-120138676D01*
X81039528Y-120127996D01*
X81039531Y-120127990D01*
X81039709Y-120127787D01*
X81041954Y-120126356D01*
X81046873Y-120119586D01*
X81054621Y-120110717D01*
X81064165Y-120089544D01*
X81114488Y-120017677D01*
X81145324Y-119951548D01*
X81148270Y-119945991D01*
X81153608Y-119937057D01*
X81156634Y-119934257D01*
X81162270Y-119922556D01*
X81167005Y-119914630D01*
X81172296Y-119893706D01*
X81208440Y-119816196D01*
X81208440Y-119816194D01*
X81208442Y-119816191D01*
X81208442Y-119816190D01*
X81212272Y-119801892D01*
X81228583Y-119741021D01*
X81230406Y-119735337D01*
X81232697Y-119729233D01*
X81236010Y-119724827D01*
X81240628Y-119708097D01*
X81242953Y-119701902D01*
X81244384Y-119682051D01*
X81265978Y-119601463D01*
X81273198Y-119518930D01*
X81273951Y-119513317D01*
X81277444Y-119494072D01*
X81277444Y-119494067D01*
X81278311Y-119489291D01*
X81278314Y-119489269D01*
X81279694Y-119481660D01*
X81277998Y-119469304D01*
X81278112Y-119464216D01*
X81278326Y-119460314D01*
X81285353Y-119380000D01*
X81278326Y-119299690D01*
X81278112Y-119295780D01*
X81277999Y-119290697D01*
X81280353Y-119281969D01*
X81277746Y-119267600D01*
X81277741Y-119267568D01*
X81277444Y-119265932D01*
X81277444Y-119265928D01*
X81273951Y-119246682D01*
X81273198Y-119241069D01*
X81265978Y-119158537D01*
X81244383Y-119077944D01*
X81244742Y-119062863D01*
X81240629Y-119051905D01*
X81236892Y-119038363D01*
X81232686Y-119030736D01*
X81230410Y-119024671D01*
X81228572Y-119018938D01*
X81208442Y-118943811D01*
X81208439Y-118943802D01*
X81203636Y-118933502D01*
X81172296Y-118866294D01*
X81169838Y-118850109D01*
X81162267Y-118837437D01*
X81157728Y-118828013D01*
X81153606Y-118822938D01*
X81148279Y-118814022D01*
X81145309Y-118808419D01*
X81114488Y-118742324D01*
X81114487Y-118742322D01*
X81064166Y-118670456D01*
X81058534Y-118653757D01*
X81046872Y-118640409D01*
X81042927Y-118634979D01*
X81039715Y-118632217D01*
X81030193Y-118621318D01*
X81026100Y-118616093D01*
X80986977Y-118560219D01*
X80923295Y-118496537D01*
X80914268Y-118480005D01*
X80898145Y-118467148D01*
X80896158Y-118465248D01*
X80894641Y-118464354D01*
X80879944Y-118452634D01*
X80874754Y-118447996D01*
X80829782Y-118403023D01*
X80754029Y-118349981D01*
X80741536Y-118334352D01*
X80702297Y-118313237D01*
X80696110Y-118309424D01*
X80647682Y-118275515D01*
X80647680Y-118275514D01*
X80647679Y-118275513D01*
X80647677Y-118275512D01*
X80561599Y-118235373D01*
X80545732Y-118221402D01*
X80515007Y-118211418D01*
X80514998Y-118211416D01*
X80502844Y-118207465D01*
X80495801Y-118204690D01*
X80446195Y-118181559D01*
X80351952Y-118156307D01*
X80332955Y-118144728D01*
X80294197Y-118139477D01*
X80287891Y-118138622D01*
X80280165Y-118137070D01*
X80231467Y-118124023D01*
X80231465Y-118124022D01*
X80231463Y-118124022D01*
X80231461Y-118124021D01*
X80231457Y-118124021D01*
X80131623Y-118115287D01*
X80109904Y-118106791D01*
X80064190Y-118108844D01*
X80055998Y-118108670D01*
X80010004Y-118104647D01*
X80009998Y-118104647D01*
X79907463Y-118113617D01*
X79883582Y-118108817D01*
X79839180Y-118118950D01*
X79839179Y-118118951D01*
X79838786Y-118119040D01*
X79830391Y-118120359D01*
X79788540Y-118124021D01*
X79788534Y-118124022D01*
X79625172Y-118167796D01*
X79616744Y-118169719D01*
X79612408Y-118171127D01*
X79609315Y-118172043D01*
X79573806Y-118181558D01*
X79573803Y-118181559D01*
X79372323Y-118275512D01*
X79372319Y-118275514D01*
X79190217Y-118403023D01*
X79033023Y-118560217D01*
X78905514Y-118742319D01*
X78905512Y-118742323D01*
X78811561Y-118943800D01*
X78754022Y-119158535D01*
X78754021Y-119158542D01*
X78734647Y-119379997D01*
X78734647Y-119380002D01*
X76200500Y-119380002D01*
X76200500Y-86360002D01*
X78734647Y-86360002D01*
X78754021Y-86581457D01*
X78754022Y-86581465D01*
X78811558Y-86796191D01*
X78811559Y-86796193D01*
X78811560Y-86796196D01*
X78835015Y-86846495D01*
X78905511Y-86997676D01*
X78905513Y-86997679D01*
X79033023Y-87179781D01*
X79190219Y-87336977D01*
X79372323Y-87464488D01*
X79573804Y-87558440D01*
X79573811Y-87558442D01*
X79573814Y-87558443D01*
X79609313Y-87567955D01*
X79612422Y-87568875D01*
X79616745Y-87570279D01*
X79616755Y-87570283D01*
X79625158Y-87572200D01*
X79788537Y-87615978D01*
X79830378Y-87619638D01*
X79838778Y-87620957D01*
X79839179Y-87621049D01*
X79841917Y-87621674D01*
X79841939Y-87621678D01*
X79875563Y-87629351D01*
X79907475Y-87626383D01*
X80010000Y-87635353D01*
X80056024Y-87631326D01*
X80064186Y-87631154D01*
X80067093Y-87631285D01*
X80067098Y-87631284D01*
X80068448Y-87631345D01*
X80068461Y-87631345D01*
X80102036Y-87632853D01*
X80131627Y-87624712D01*
X80231463Y-87615978D01*
X80280183Y-87602923D01*
X80287886Y-87601377D01*
X80293173Y-87600661D01*
X80293175Y-87600660D01*
X80295724Y-87600315D01*
X80295742Y-87600312D01*
X80325510Y-87596279D01*
X80351954Y-87583692D01*
X80428600Y-87563154D01*
X80446186Y-87558443D01*
X80446188Y-87558442D01*
X80446196Y-87558440D01*
X80495821Y-87535299D01*
X80502841Y-87532534D01*
X80510150Y-87530160D01*
X80510156Y-87530156D01*
X80515442Y-87528439D01*
X80515454Y-87528435D01*
X80538940Y-87520803D01*
X80561599Y-87504626D01*
X80647677Y-87464488D01*
X80696124Y-87430564D01*
X80702284Y-87426768D01*
X80711053Y-87422050D01*
X80711056Y-87422047D01*
X80735587Y-87408847D01*
X80754028Y-87390019D01*
X80829781Y-87336977D01*
X80874779Y-87291978D01*
X80879935Y-87287370D01*
X80889423Y-87279805D01*
X80889424Y-87279802D01*
X80894636Y-87275647D01*
X80895654Y-87275231D01*
X80898146Y-87272849D01*
X80909298Y-87263955D01*
X80923294Y-87243463D01*
X80986977Y-87179781D01*
X81026105Y-87123901D01*
X81030196Y-87118676D01*
X81039528Y-87107996D01*
X81039531Y-87107990D01*
X81039709Y-87107787D01*
X81041954Y-87106356D01*
X81046873Y-87099586D01*
X81054621Y-87090717D01*
X81064165Y-87069544D01*
X81114488Y-86997677D01*
X81145324Y-86931548D01*
X81148270Y-86925991D01*
X81153608Y-86917057D01*
X81156634Y-86914257D01*
X81162270Y-86902556D01*
X81167005Y-86894630D01*
X81172296Y-86873706D01*
X81208440Y-86796196D01*
X81208440Y-86796194D01*
X81208442Y-86796191D01*
X81208442Y-86796190D01*
X81212272Y-86781892D01*
X81228583Y-86721021D01*
X81230406Y-86715337D01*
X81232697Y-86709233D01*
X81236010Y-86704827D01*
X81240628Y-86688097D01*
X81242953Y-86681902D01*
X81244384Y-86662051D01*
X81265978Y-86581463D01*
X81273198Y-86498930D01*
X81273951Y-86493317D01*
X81277444Y-86474072D01*
X81277444Y-86474067D01*
X81278311Y-86469291D01*
X81278314Y-86469269D01*
X81279694Y-86461660D01*
X81277998Y-86449304D01*
X81278112Y-86444216D01*
X81278326Y-86440314D01*
X81285353Y-86360000D01*
X81278326Y-86279690D01*
X81278112Y-86275780D01*
X81277999Y-86270697D01*
X81280353Y-86261969D01*
X81277746Y-86247600D01*
X81277741Y-86247568D01*
X81277444Y-86245932D01*
X81277444Y-86245928D01*
X81273951Y-86226682D01*
X81273198Y-86221069D01*
X81265978Y-86138537D01*
X81244383Y-86057944D01*
X81244742Y-86042863D01*
X81240629Y-86031905D01*
X81236892Y-86018363D01*
X81232686Y-86010736D01*
X81230410Y-86004671D01*
X81228572Y-85998938D01*
X81227540Y-85995088D01*
X81208440Y-85923804D01*
X81172296Y-85846294D01*
X81169838Y-85830109D01*
X81162267Y-85817437D01*
X81157728Y-85808013D01*
X81153606Y-85802938D01*
X81148279Y-85794022D01*
X81145309Y-85788419D01*
X81114488Y-85722324D01*
X81114487Y-85722322D01*
X81064166Y-85650456D01*
X81058534Y-85633757D01*
X81046872Y-85620409D01*
X81042927Y-85614979D01*
X81039715Y-85612217D01*
X81030193Y-85601318D01*
X81026100Y-85596093D01*
X80986977Y-85540219D01*
X80923295Y-85476537D01*
X80914268Y-85460005D01*
X80898145Y-85447148D01*
X80896158Y-85445248D01*
X80894641Y-85444354D01*
X80879944Y-85432634D01*
X80874754Y-85427996D01*
X80829782Y-85383023D01*
X80754029Y-85329981D01*
X80741536Y-85314352D01*
X80702297Y-85293237D01*
X80696110Y-85289424D01*
X80647682Y-85255515D01*
X80647680Y-85255514D01*
X80647679Y-85255513D01*
X80647677Y-85255512D01*
X80561599Y-85215373D01*
X80545732Y-85201402D01*
X80515007Y-85191418D01*
X80514998Y-85191416D01*
X80502844Y-85187465D01*
X80495801Y-85184690D01*
X80446195Y-85161559D01*
X80351952Y-85136307D01*
X80332955Y-85124728D01*
X80294197Y-85119477D01*
X80287891Y-85118622D01*
X80280165Y-85117070D01*
X80231467Y-85104023D01*
X80231465Y-85104022D01*
X80231463Y-85104022D01*
X80231461Y-85104021D01*
X80231457Y-85104021D01*
X80131623Y-85095287D01*
X80109904Y-85086791D01*
X80064190Y-85088844D01*
X80055998Y-85088670D01*
X80010004Y-85084647D01*
X80009998Y-85084647D01*
X79907463Y-85093617D01*
X79883582Y-85088817D01*
X79839180Y-85098950D01*
X79839179Y-85098951D01*
X79838786Y-85099040D01*
X79830391Y-85100359D01*
X79788540Y-85104021D01*
X79788534Y-85104022D01*
X79625172Y-85147796D01*
X79616744Y-85149719D01*
X79612408Y-85151127D01*
X79609315Y-85152043D01*
X79573806Y-85161558D01*
X79573803Y-85161559D01*
X79372323Y-85255512D01*
X79372319Y-85255514D01*
X79190217Y-85383023D01*
X79033023Y-85540217D01*
X78905514Y-85722319D01*
X78905512Y-85722323D01*
X78811561Y-85923800D01*
X78754022Y-86138535D01*
X78754021Y-86138542D01*
X78734647Y-86359997D01*
X78734647Y-86360002D01*
X76200500Y-86360002D01*
X76200500Y-75915915D01*
X82251095Y-75915915D01*
X82258895Y-76020009D01*
X82259068Y-76024624D01*
X82259068Y-76045311D01*
X82258294Y-76047946D01*
X82258343Y-76048596D01*
X82259612Y-76052587D01*
X82262695Y-76073045D01*
X82263215Y-76077654D01*
X82265938Y-76113982D01*
X82271014Y-76181721D01*
X82271015Y-76181726D01*
X82271016Y-76181736D01*
X82294238Y-76283481D01*
X82295101Y-76288039D01*
X82298183Y-76308493D01*
X82297811Y-76311205D01*
X82297960Y-76311855D01*
X82299810Y-76315615D01*
X82305904Y-76335374D01*
X82307104Y-76339851D01*
X82314464Y-76372094D01*
X82330330Y-76441607D01*
X82362994Y-76524834D01*
X82368453Y-76538741D01*
X82369985Y-76543120D01*
X82376090Y-76562913D01*
X82376127Y-76565652D01*
X82376364Y-76566257D01*
X82378755Y-76569699D01*
X82387732Y-76588341D01*
X82389586Y-76592590D01*
X82427714Y-76689738D01*
X82427716Y-76689741D01*
X82479893Y-76780114D01*
X82482058Y-76784210D01*
X82491048Y-76802878D01*
X82491493Y-76805584D01*
X82491809Y-76806130D01*
X82494681Y-76809173D01*
X82506343Y-76826277D01*
X82508812Y-76830205D01*
X82560998Y-76920592D01*
X82626068Y-77002187D01*
X82628820Y-77005916D01*
X82640473Y-77023006D01*
X82641317Y-77025617D01*
X82641725Y-77026128D01*
X82645014Y-77028705D01*
X82659088Y-77043872D01*
X82662116Y-77047390D01*
X82727193Y-77128994D01*
X82727196Y-77128996D01*
X82803680Y-77199963D01*
X82806960Y-77203242D01*
X82821055Y-77218433D01*
X82822277Y-77220886D01*
X82822747Y-77221321D01*
X82826390Y-77223383D01*
X82826393Y-77223385D01*
X82842598Y-77236308D01*
X82846088Y-77239312D01*
X82922596Y-77310301D01*
X83008830Y-77369094D01*
X83012552Y-77371841D01*
X83028737Y-77384749D01*
X83030311Y-77386991D01*
X83030843Y-77387354D01*
X83034751Y-77388849D01*
X83052700Y-77399212D01*
X83056579Y-77401649D01*
X83142839Y-77460460D01*
X83236853Y-77505735D01*
X83240944Y-77507896D01*
X83258891Y-77518258D01*
X83260783Y-77520242D01*
X83261360Y-77520520D01*
X83265450Y-77521416D01*
X83284731Y-77528983D01*
X83288965Y-77530830D01*
X83383001Y-77576116D01*
X83482745Y-77606882D01*
X83487082Y-77608401D01*
X83495487Y-77611699D01*
X83506377Y-77615974D01*
X83508541Y-77617652D01*
X83509154Y-77617841D01*
X83513327Y-77618118D01*
X83533513Y-77622725D01*
X83537994Y-77623925D01*
X83547444Y-77626840D01*
X83637719Y-77654686D01*
X83637722Y-77654686D01*
X83637724Y-77654687D01*
X83655442Y-77657357D01*
X83740937Y-77670243D01*
X83745455Y-77671098D01*
X83765639Y-77675705D01*
X83768031Y-77677043D01*
X83768685Y-77677141D01*
X83772845Y-77676793D01*
X83793508Y-77678341D01*
X83798066Y-77678854D01*
X83901302Y-77694415D01*
X83901308Y-77694415D01*
X84005651Y-77694415D01*
X84010286Y-77694588D01*
X84030933Y-77696136D01*
X84033502Y-77697104D01*
X84034150Y-77697104D01*
X84038230Y-77696136D01*
X84058879Y-77694588D01*
X84063513Y-77694415D01*
X84167856Y-77694415D01*
X84167862Y-77694415D01*
X84271103Y-77678853D01*
X84275649Y-77678342D01*
X84296315Y-77676793D01*
X84298990Y-77677366D01*
X84299622Y-77677270D01*
X84303489Y-77675713D01*
X84323713Y-77671097D01*
X84328216Y-77670245D01*
X84431445Y-77654686D01*
X84531200Y-77623915D01*
X84535615Y-77622732D01*
X84555838Y-77618117D01*
X84558570Y-77618284D01*
X84559181Y-77618096D01*
X84562783Y-77615974D01*
X84582105Y-77608391D01*
X84586387Y-77606892D01*
X84686163Y-77576116D01*
X84780219Y-77530821D01*
X84784401Y-77528996D01*
X84803710Y-77521417D01*
X84806443Y-77521175D01*
X84807012Y-77520901D01*
X84810264Y-77518262D01*
X84828210Y-77507901D01*
X84832273Y-77505753D01*
X84926326Y-77460460D01*
X85012584Y-77401649D01*
X85016459Y-77399214D01*
X85034409Y-77388851D01*
X85037069Y-77388205D01*
X85037602Y-77387842D01*
X85040419Y-77384753D01*
X85056643Y-77371815D01*
X85060297Y-77369119D01*
X85146568Y-77310301D01*
X85223100Y-77239288D01*
X85226567Y-77236306D01*
X85242771Y-77223384D01*
X85245309Y-77222348D01*
X85245774Y-77221916D01*
X85248103Y-77218437D01*
X85262216Y-77203227D01*
X85265458Y-77199986D01*
X85341970Y-77128994D01*
X85407051Y-77047384D01*
X85410056Y-77043892D01*
X85424144Y-77028709D01*
X85426497Y-77027307D01*
X85426898Y-77026805D01*
X85428683Y-77023018D01*
X85428691Y-77023006D01*
X85440366Y-77005881D01*
X85443057Y-77002234D01*
X85508168Y-76920589D01*
X85560368Y-76830175D01*
X85562797Y-76826309D01*
X85574480Y-76809173D01*
X85576600Y-76807435D01*
X85576915Y-76806889D01*
X85578119Y-76802870D01*
X85581588Y-76795667D01*
X85587118Y-76784182D01*
X85589245Y-76780158D01*
X85641448Y-76689741D01*
X85679592Y-76592551D01*
X85681415Y-76588372D01*
X85690411Y-76569692D01*
X85692247Y-76567658D01*
X85692482Y-76567060D01*
X85693072Y-76562913D01*
X85699183Y-76543102D01*
X85700689Y-76538797D01*
X85738834Y-76441607D01*
X85762064Y-76339827D01*
X85763248Y-76335407D01*
X85768016Y-76319950D01*
X85769356Y-76315608D01*
X85770866Y-76313326D01*
X85771014Y-76312679D01*
X85770979Y-76308496D01*
X85770979Y-76308493D01*
X85774066Y-76288012D01*
X85774917Y-76283513D01*
X85798149Y-76181730D01*
X85805949Y-76077644D01*
X85806466Y-76073053D01*
X85810600Y-76045628D01*
X85810207Y-76043005D01*
X85810727Y-76015153D01*
X85810887Y-76011740D01*
X85818069Y-75915915D01*
X85812992Y-75848167D01*
X103102088Y-75848167D01*
X103109888Y-75952261D01*
X103110061Y-75956876D01*
X103110061Y-75977563D01*
X103109287Y-75980198D01*
X103109336Y-75980848D01*
X103110605Y-75984839D01*
X103113688Y-76005297D01*
X103114208Y-76009906D01*
X103117059Y-76047946D01*
X103122007Y-76113973D01*
X103122008Y-76113978D01*
X103122009Y-76113988D01*
X103145231Y-76215733D01*
X103146094Y-76220291D01*
X103149176Y-76240745D01*
X103148804Y-76243457D01*
X103148953Y-76244107D01*
X103150803Y-76247867D01*
X103156897Y-76267626D01*
X103158097Y-76272103D01*
X103172539Y-76335374D01*
X103181323Y-76373859D01*
X103207912Y-76441607D01*
X103219446Y-76470993D01*
X103220978Y-76475372D01*
X103227083Y-76495165D01*
X103227120Y-76497904D01*
X103227357Y-76498509D01*
X103229748Y-76501951D01*
X103238725Y-76520593D01*
X103240579Y-76524842D01*
X103278707Y-76621990D01*
X103278709Y-76621993D01*
X103330890Y-76712373D01*
X103333051Y-76716462D01*
X103342041Y-76735130D01*
X103342486Y-76737836D01*
X103342802Y-76738382D01*
X103345674Y-76741425D01*
X103357336Y-76758529D01*
X103359805Y-76762457D01*
X103411991Y-76852844D01*
X103477061Y-76934439D01*
X103479813Y-76938168D01*
X103491466Y-76955258D01*
X103492310Y-76957869D01*
X103492718Y-76958380D01*
X103496007Y-76960957D01*
X103510081Y-76976124D01*
X103513109Y-76979642D01*
X103578186Y-77061246D01*
X103578189Y-77061248D01*
X103654673Y-77132215D01*
X103657953Y-77135494D01*
X103672048Y-77150685D01*
X103673270Y-77153138D01*
X103673740Y-77153573D01*
X103677383Y-77155635D01*
X103677386Y-77155637D01*
X103693591Y-77168560D01*
X103697081Y-77171564D01*
X103773589Y-77242553D01*
X103859823Y-77301346D01*
X103863545Y-77304093D01*
X103879730Y-77317001D01*
X103881304Y-77319243D01*
X103881836Y-77319606D01*
X103885744Y-77321101D01*
X103903693Y-77331464D01*
X103907572Y-77333901D01*
X103993832Y-77392712D01*
X104087846Y-77437987D01*
X104091937Y-77440148D01*
X104109884Y-77450510D01*
X104111776Y-77452494D01*
X104112353Y-77452772D01*
X104116443Y-77453668D01*
X104135724Y-77461235D01*
X104139958Y-77463082D01*
X104233994Y-77508368D01*
X104333738Y-77539134D01*
X104338075Y-77540653D01*
X104346480Y-77543951D01*
X104357370Y-77548226D01*
X104359534Y-77549904D01*
X104360147Y-77550093D01*
X104364320Y-77550370D01*
X104384506Y-77554977D01*
X104388988Y-77556177D01*
X104488712Y-77586938D01*
X104488715Y-77586938D01*
X104488717Y-77586939D01*
X104506435Y-77589609D01*
X104591930Y-77602495D01*
X104596448Y-77603350D01*
X104616632Y-77607957D01*
X104619024Y-77609295D01*
X104619678Y-77609393D01*
X104623838Y-77609045D01*
X104644501Y-77610593D01*
X104649059Y-77611106D01*
X104752295Y-77626667D01*
X104752301Y-77626667D01*
X104856644Y-77626667D01*
X104861279Y-77626840D01*
X104881926Y-77628388D01*
X104884495Y-77629356D01*
X104885143Y-77629356D01*
X104889223Y-77628388D01*
X104909872Y-77626840D01*
X104914506Y-77626667D01*
X105018849Y-77626667D01*
X105018855Y-77626667D01*
X105122096Y-77611105D01*
X105126642Y-77610594D01*
X105147308Y-77609045D01*
X105149983Y-77609618D01*
X105150615Y-77609522D01*
X105154482Y-77607965D01*
X105174706Y-77603349D01*
X105179209Y-77602497D01*
X105282438Y-77586938D01*
X105382193Y-77556167D01*
X105386608Y-77554984D01*
X105406831Y-77550369D01*
X105409563Y-77550536D01*
X105410176Y-77550347D01*
X105413779Y-77548225D01*
X105433084Y-77540648D01*
X105437374Y-77539146D01*
X105537156Y-77508368D01*
X105631212Y-77463073D01*
X105635394Y-77461248D01*
X105654703Y-77453669D01*
X105657436Y-77453427D01*
X105658005Y-77453153D01*
X105661257Y-77450514D01*
X105679203Y-77440153D01*
X105683266Y-77438005D01*
X105777319Y-77392712D01*
X105863577Y-77333901D01*
X105867452Y-77331466D01*
X105885402Y-77321103D01*
X105888062Y-77320457D01*
X105888595Y-77320094D01*
X105891412Y-77317005D01*
X105907636Y-77304067D01*
X105911290Y-77301371D01*
X105997561Y-77242553D01*
X106074093Y-77171540D01*
X106077560Y-77168558D01*
X106093764Y-77155636D01*
X106096302Y-77154600D01*
X106096767Y-77154168D01*
X106099096Y-77150689D01*
X106113209Y-77135479D01*
X106116451Y-77132238D01*
X106192963Y-77061246D01*
X106258044Y-76979636D01*
X106261049Y-76976144D01*
X106275137Y-76960961D01*
X106277490Y-76959559D01*
X106277891Y-76959057D01*
X106279676Y-76955270D01*
X106279684Y-76955258D01*
X106291359Y-76938133D01*
X106294050Y-76934486D01*
X106359161Y-76852841D01*
X106411361Y-76762427D01*
X106413790Y-76758561D01*
X106425473Y-76741425D01*
X106427593Y-76739687D01*
X106427910Y-76739137D01*
X106429115Y-76735116D01*
X106432384Y-76728328D01*
X106438105Y-76716447D01*
X106440244Y-76712400D01*
X106492441Y-76621993D01*
X106530585Y-76524803D01*
X106532408Y-76520624D01*
X106541404Y-76501944D01*
X106543240Y-76499910D01*
X106543475Y-76499312D01*
X106544065Y-76495165D01*
X106550176Y-76475354D01*
X106551682Y-76471049D01*
X106589827Y-76373859D01*
X106613057Y-76272079D01*
X106614241Y-76267659D01*
X106619009Y-76252202D01*
X106620349Y-76247860D01*
X106621859Y-76245578D01*
X106622007Y-76244931D01*
X106621972Y-76240748D01*
X106621972Y-76240745D01*
X106625059Y-76220264D01*
X106625910Y-76215765D01*
X106649142Y-76113982D01*
X106656942Y-76009896D01*
X106657459Y-76005305D01*
X106661593Y-75977880D01*
X106661200Y-75975257D01*
X106661720Y-75947405D01*
X106661880Y-75943992D01*
X106669062Y-75848167D01*
X106661881Y-75752344D01*
X106661720Y-75748924D01*
X106661200Y-75721075D01*
X106661708Y-75719216D01*
X106657459Y-75691025D01*
X106656940Y-75686415D01*
X106649143Y-75582358D01*
X106649139Y-75582341D01*
X106625914Y-75480584D01*
X106625056Y-75476048D01*
X106625055Y-75476040D01*
X106621972Y-75455589D01*
X106622344Y-75452873D01*
X106622196Y-75452227D01*
X106620346Y-75448466D01*
X106614247Y-75428694D01*
X106613053Y-75424235D01*
X106589827Y-75322475D01*
X106551701Y-75225332D01*
X106550169Y-75220955D01*
X106544067Y-75201172D01*
X106544029Y-75198430D01*
X106543793Y-75197829D01*
X106541403Y-75194386D01*
X106539313Y-75190048D01*
X106532418Y-75175729D01*
X106530577Y-75171510D01*
X106492441Y-75074341D01*
X106440241Y-74983929D01*
X106438098Y-74979873D01*
X106429110Y-74961208D01*
X106428664Y-74958504D01*
X106428343Y-74957948D01*
X106425468Y-74954901D01*
X106425424Y-74954837D01*
X106413800Y-74937788D01*
X106411354Y-74933894D01*
X106359161Y-74843493D01*
X106294070Y-74761871D01*
X106291344Y-74758178D01*
X106279678Y-74741066D01*
X106278834Y-74738457D01*
X106278430Y-74737950D01*
X106275134Y-74735367D01*
X106261058Y-74720197D01*
X106258033Y-74716682D01*
X106192964Y-74635089D01*
X106189490Y-74631866D01*
X106116476Y-74564118D01*
X106113197Y-74560839D01*
X106099100Y-74545647D01*
X106097876Y-74543193D01*
X106097432Y-74542780D01*
X106093797Y-74540723D01*
X106093062Y-74540137D01*
X106087586Y-74535770D01*
X106077564Y-74527777D01*
X106074058Y-74524760D01*
X105997561Y-74453781D01*
X105911329Y-74394989D01*
X105907601Y-74392237D01*
X105891420Y-74379333D01*
X105889846Y-74377090D01*
X105889313Y-74376727D01*
X105885402Y-74375230D01*
X105878270Y-74371113D01*
X105867475Y-74364880D01*
X105863564Y-74362423D01*
X105777319Y-74303622D01*
X105777315Y-74303620D01*
X105683304Y-74258346D01*
X105679205Y-74256180D01*
X105661264Y-74245822D01*
X105659372Y-74243838D01*
X105658796Y-74243560D01*
X105654706Y-74242663D01*
X105635425Y-74235097D01*
X105631173Y-74233242D01*
X105591584Y-74214177D01*
X105537156Y-74187966D01*
X105497968Y-74175878D01*
X105437435Y-74157205D01*
X105433060Y-74155675D01*
X105413784Y-74148110D01*
X105411616Y-74146429D01*
X105411007Y-74146241D01*
X105406823Y-74145963D01*
X105386638Y-74141355D01*
X105382161Y-74140155D01*
X105282436Y-74109395D01*
X105179238Y-74093840D01*
X105174681Y-74092978D01*
X105166525Y-74091117D01*
X105154506Y-74088373D01*
X105152114Y-74087034D01*
X105151471Y-74086938D01*
X105147288Y-74087287D01*
X105143289Y-74086987D01*
X105126672Y-74085742D01*
X105122066Y-74085223D01*
X105091872Y-74080672D01*
X105018859Y-74069667D01*
X105018855Y-74069667D01*
X104914481Y-74069667D01*
X104909860Y-74069494D01*
X104907172Y-74069292D01*
X104906236Y-74069222D01*
X104889222Y-74067947D01*
X104886656Y-74066980D01*
X104886006Y-74066980D01*
X104881925Y-74067947D01*
X104877830Y-74068254D01*
X104861298Y-74069493D01*
X104856662Y-74069667D01*
X104752287Y-74069667D01*
X104649098Y-74085221D01*
X104644490Y-74085740D01*
X104623844Y-74087287D01*
X104621163Y-74086713D01*
X104620524Y-74086809D01*
X104616636Y-74088374D01*
X104596464Y-74092978D01*
X104591909Y-74093840D01*
X104488705Y-74109397D01*
X104388989Y-74140155D01*
X104384513Y-74141355D01*
X104372304Y-74144142D01*
X104364312Y-74145966D01*
X104361576Y-74145798D01*
X104360977Y-74145982D01*
X104357368Y-74148108D01*
X104338087Y-74155675D01*
X104333710Y-74157206D01*
X104233993Y-74187966D01*
X104139977Y-74233241D01*
X104135728Y-74235095D01*
X104116446Y-74242663D01*
X104113713Y-74242905D01*
X104113139Y-74243181D01*
X104109884Y-74245823D01*
X104091939Y-74256182D01*
X104087841Y-74258348D01*
X103993840Y-74303617D01*
X103993833Y-74303621D01*
X103907599Y-74362413D01*
X103903678Y-74364877D01*
X103892539Y-74371309D01*
X103887277Y-74374347D01*
X103885706Y-74375254D01*
X103883054Y-74375896D01*
X103882554Y-74376237D01*
X103879734Y-74379329D01*
X103863547Y-74392239D01*
X103859813Y-74394994D01*
X103773584Y-74453784D01*
X103697087Y-74524763D01*
X103693569Y-74527790D01*
X103677382Y-74540698D01*
X103674844Y-74541733D01*
X103674379Y-74542164D01*
X103672053Y-74545641D01*
X103657962Y-74560829D01*
X103654681Y-74564110D01*
X103578184Y-74635090D01*
X103513111Y-74716688D01*
X103510087Y-74720202D01*
X103496015Y-74735368D01*
X103493661Y-74736769D01*
X103493253Y-74737281D01*
X103491469Y-74741069D01*
X103479814Y-74758164D01*
X103477060Y-74761895D01*
X103411989Y-74843493D01*
X103359803Y-74933880D01*
X103357335Y-74937808D01*
X103345678Y-74954904D01*
X103343558Y-74956641D01*
X103343239Y-74957195D01*
X103342038Y-74961211D01*
X103333060Y-74979853D01*
X103330894Y-74983951D01*
X103291781Y-75051699D01*
X103278709Y-75074341D01*
X103270444Y-75095398D01*
X103240581Y-75171487D01*
X103238726Y-75175738D01*
X103229746Y-75194385D01*
X103227908Y-75196420D01*
X103227670Y-75197026D01*
X103227083Y-75201168D01*
X103220979Y-75220959D01*
X103219447Y-75225337D01*
X103181322Y-75322477D01*
X103158096Y-75424233D01*
X103156897Y-75428709D01*
X103150899Y-75448156D01*
X103150771Y-75448572D01*
X103149270Y-75450834D01*
X103149140Y-75451402D01*
X103149177Y-75455588D01*
X103146094Y-75476040D01*
X103145232Y-75480597D01*
X103122009Y-75582341D01*
X103122008Y-75582349D01*
X103114208Y-75686426D01*
X103113689Y-75691035D01*
X103110605Y-75711493D01*
X103109448Y-75713980D01*
X103109400Y-75714626D01*
X103110061Y-75718769D01*
X103110061Y-75739457D01*
X103109888Y-75744073D01*
X103102088Y-75848167D01*
X85812992Y-75848167D01*
X85810888Y-75820092D01*
X85810727Y-75816672D01*
X85810207Y-75788823D01*
X85810715Y-75786964D01*
X85806466Y-75758773D01*
X85805947Y-75754163D01*
X85805812Y-75752363D01*
X85800871Y-75686426D01*
X85798150Y-75650106D01*
X85798146Y-75650089D01*
X85774921Y-75548332D01*
X85774063Y-75543796D01*
X85774062Y-75543788D01*
X85770979Y-75523337D01*
X85771351Y-75520621D01*
X85771203Y-75519975D01*
X85769353Y-75516214D01*
X85763254Y-75496442D01*
X85762060Y-75491983D01*
X85746597Y-75424233D01*
X85738837Y-75390234D01*
X85738834Y-75390225D01*
X85738834Y-75390223D01*
X85700708Y-75293080D01*
X85699176Y-75288703D01*
X85693074Y-75268920D01*
X85693036Y-75266178D01*
X85692800Y-75265577D01*
X85690410Y-75262134D01*
X85688320Y-75257796D01*
X85681425Y-75243477D01*
X85679584Y-75239258D01*
X85641448Y-75142089D01*
X85589248Y-75051677D01*
X85587105Y-75047621D01*
X85578117Y-75028956D01*
X85577671Y-75026252D01*
X85577350Y-75025696D01*
X85574475Y-75022649D01*
X85574431Y-75022585D01*
X85562807Y-75005536D01*
X85560361Y-75001642D01*
X85508168Y-74911241D01*
X85443077Y-74829619D01*
X85440351Y-74825926D01*
X85428685Y-74808814D01*
X85427841Y-74806205D01*
X85427437Y-74805698D01*
X85424141Y-74803115D01*
X85410065Y-74787945D01*
X85407040Y-74784430D01*
X85341971Y-74702837D01*
X85265483Y-74631866D01*
X85262204Y-74628587D01*
X85248107Y-74613395D01*
X85246883Y-74610941D01*
X85246439Y-74610528D01*
X85242804Y-74608471D01*
X85242069Y-74607885D01*
X85236593Y-74603518D01*
X85226571Y-74595525D01*
X85223065Y-74592508D01*
X85146568Y-74521529D01*
X85060336Y-74462737D01*
X85056608Y-74459985D01*
X85040427Y-74447081D01*
X85038853Y-74444838D01*
X85038320Y-74444475D01*
X85034409Y-74442978D01*
X85027277Y-74438861D01*
X85016482Y-74432628D01*
X85012571Y-74430171D01*
X84926326Y-74371370D01*
X84926322Y-74371368D01*
X84832311Y-74326094D01*
X84828212Y-74323928D01*
X84810271Y-74313570D01*
X84808379Y-74311586D01*
X84807803Y-74311308D01*
X84803713Y-74310411D01*
X84784432Y-74302845D01*
X84780180Y-74300990D01*
X84697735Y-74261287D01*
X84686163Y-74255714D01*
X84643853Y-74242663D01*
X84586442Y-74224953D01*
X84582067Y-74223423D01*
X84562791Y-74215858D01*
X84560623Y-74214177D01*
X84560014Y-74213989D01*
X84555830Y-74213711D01*
X84535645Y-74209103D01*
X84531168Y-74207903D01*
X84431443Y-74177143D01*
X84328245Y-74161588D01*
X84323688Y-74160726D01*
X84315532Y-74158865D01*
X84303513Y-74156121D01*
X84301121Y-74154782D01*
X84300478Y-74154686D01*
X84296295Y-74155035D01*
X84292296Y-74154735D01*
X84275679Y-74153490D01*
X84271073Y-74152971D01*
X84227666Y-74146429D01*
X84167866Y-74137415D01*
X84167862Y-74137415D01*
X84063488Y-74137415D01*
X84058867Y-74137242D01*
X84056179Y-74137040D01*
X84055243Y-74136970D01*
X84038229Y-74135695D01*
X84035663Y-74134728D01*
X84035013Y-74134728D01*
X84030932Y-74135695D01*
X84026837Y-74136002D01*
X84010305Y-74137241D01*
X84005669Y-74137415D01*
X83901294Y-74137415D01*
X83798105Y-74152969D01*
X83793497Y-74153488D01*
X83772851Y-74155035D01*
X83770170Y-74154461D01*
X83769531Y-74154557D01*
X83765643Y-74156122D01*
X83745471Y-74160726D01*
X83740916Y-74161588D01*
X83637712Y-74177145D01*
X83537996Y-74207903D01*
X83533520Y-74209103D01*
X83521311Y-74211890D01*
X83513319Y-74213714D01*
X83510583Y-74213546D01*
X83509984Y-74213730D01*
X83506375Y-74215856D01*
X83487094Y-74223423D01*
X83482717Y-74224954D01*
X83383000Y-74255714D01*
X83288984Y-74300989D01*
X83284735Y-74302843D01*
X83265453Y-74310411D01*
X83262720Y-74310653D01*
X83262146Y-74310929D01*
X83258891Y-74313571D01*
X83240946Y-74323930D01*
X83236848Y-74326096D01*
X83142847Y-74371365D01*
X83142840Y-74371369D01*
X83056606Y-74430161D01*
X83052685Y-74432625D01*
X83041546Y-74439057D01*
X83036284Y-74442095D01*
X83034713Y-74443002D01*
X83032061Y-74443644D01*
X83031561Y-74443985D01*
X83028741Y-74447077D01*
X83012554Y-74459987D01*
X83008820Y-74462742D01*
X82922591Y-74521532D01*
X82846094Y-74592511D01*
X82842576Y-74595538D01*
X82826389Y-74608446D01*
X82823851Y-74609481D01*
X82823386Y-74609912D01*
X82821060Y-74613389D01*
X82806969Y-74628577D01*
X82803688Y-74631858D01*
X82727191Y-74702838D01*
X82662118Y-74784436D01*
X82659094Y-74787950D01*
X82645022Y-74803116D01*
X82642668Y-74804517D01*
X82642260Y-74805029D01*
X82640476Y-74808817D01*
X82628821Y-74825912D01*
X82626067Y-74829643D01*
X82560996Y-74911241D01*
X82508810Y-75001628D01*
X82506342Y-75005556D01*
X82494685Y-75022652D01*
X82492565Y-75024389D01*
X82492246Y-75024943D01*
X82491045Y-75028959D01*
X82482067Y-75047601D01*
X82479901Y-75051699D01*
X82427718Y-75142085D01*
X82427716Y-75142089D01*
X82419451Y-75163146D01*
X82389588Y-75239235D01*
X82387733Y-75243486D01*
X82378753Y-75262133D01*
X82376915Y-75264168D01*
X82376677Y-75264774D01*
X82376090Y-75268916D01*
X82369986Y-75288707D01*
X82368454Y-75293085D01*
X82330329Y-75390225D01*
X82307103Y-75491981D01*
X82305904Y-75496457D01*
X82299906Y-75515904D01*
X82299778Y-75516320D01*
X82298277Y-75518582D01*
X82298147Y-75519150D01*
X82298184Y-75523336D01*
X82295101Y-75543788D01*
X82294239Y-75548345D01*
X82271016Y-75650089D01*
X82271015Y-75650097D01*
X82263215Y-75754174D01*
X82262696Y-75758783D01*
X82259612Y-75779241D01*
X82258455Y-75781728D01*
X82258407Y-75782374D01*
X82259068Y-75786517D01*
X82259068Y-75807205D01*
X82258895Y-75811821D01*
X82251095Y-75915915D01*
X76200500Y-75915915D01*
X76200500Y-69974500D01*
X76220185Y-69907461D01*
X76272989Y-69861706D01*
X76324500Y-69850500D01*
X112905500Y-69850500D01*
X112972539Y-69870185D01*
G37*
%TD.AperFunction*%
%TA.AperFunction,Conductor*%
G36*
X87372001Y-87233785D02*
G01*
X87417756Y-87286589D01*
X87427700Y-87355747D01*
X87398675Y-87419303D01*
X87369752Y-87443827D01*
X87169289Y-87566670D01*
X87169273Y-87566682D01*
X87163320Y-87571766D01*
X87163320Y-87571767D01*
X87774818Y-88183265D01*
X87635989Y-88270498D01*
X87508498Y-88397989D01*
X87421265Y-88536818D01*
X86809767Y-87925320D01*
X86809766Y-87925320D01*
X86804682Y-87931273D01*
X86804670Y-87931289D01*
X86669549Y-88151786D01*
X86570582Y-88390714D01*
X86510211Y-88642179D01*
X86489920Y-88900000D01*
X86510211Y-89157820D01*
X86570582Y-89409285D01*
X86669549Y-89648213D01*
X86804673Y-89868714D01*
X86804676Y-89868719D01*
X86809767Y-89874679D01*
X87421265Y-89263181D01*
X87508498Y-89402011D01*
X87635989Y-89529502D01*
X87774818Y-89616734D01*
X87163319Y-90228232D01*
X87169283Y-90233325D01*
X87389786Y-90368450D01*
X87628714Y-90467417D01*
X87880179Y-90527788D01*
X88138000Y-90548079D01*
X88395820Y-90527788D01*
X88647285Y-90467417D01*
X88886213Y-90368450D01*
X89106713Y-90233326D01*
X89106723Y-90233319D01*
X89112678Y-90228232D01*
X89112678Y-90228231D01*
X88501181Y-89616734D01*
X88640011Y-89529502D01*
X88767502Y-89402011D01*
X88854734Y-89263181D01*
X89466231Y-89874678D01*
X89466232Y-89874678D01*
X89471319Y-89868723D01*
X89471326Y-89868713D01*
X89606450Y-89648213D01*
X89705417Y-89409285D01*
X89765788Y-89157820D01*
X89786079Y-88900000D01*
X89765788Y-88642179D01*
X89705417Y-88390714D01*
X89606450Y-88151786D01*
X89471325Y-87931283D01*
X89466232Y-87925319D01*
X88854733Y-88536817D01*
X88767502Y-88397989D01*
X88640011Y-88270498D01*
X88501181Y-88183265D01*
X89112679Y-87571767D01*
X89112679Y-87571766D01*
X89106719Y-87566676D01*
X89106714Y-87566673D01*
X88906248Y-87443827D01*
X88859373Y-87392016D01*
X88847950Y-87323086D01*
X88875607Y-87258923D01*
X88933563Y-87219898D01*
X88971038Y-87214100D01*
X90599325Y-87214100D01*
X90666364Y-87233785D01*
X90712119Y-87286589D01*
X90713886Y-87290648D01*
X90733101Y-87337038D01*
X90733102Y-87337040D01*
X90868267Y-87557609D01*
X90868275Y-87557621D01*
X90958933Y-87663768D01*
X90987504Y-87727529D01*
X90977067Y-87796615D01*
X90958935Y-87824829D01*
X90868269Y-87930988D01*
X90868263Y-87930996D01*
X90733102Y-88151558D01*
X90634106Y-88390557D01*
X90634102Y-88390569D01*
X90573715Y-88642101D01*
X90553418Y-88900000D01*
X90573715Y-89157898D01*
X90634102Y-89409430D01*
X90634106Y-89409442D01*
X90733102Y-89648441D01*
X90868267Y-89869009D01*
X90868270Y-89869014D01*
X90944426Y-89958181D01*
X91036276Y-90065724D01*
X91142360Y-90156328D01*
X91232985Y-90233729D01*
X91232990Y-90233732D01*
X91453558Y-90368897D01*
X91538057Y-90403897D01*
X91692560Y-90467895D01*
X91944105Y-90528285D01*
X92202000Y-90548582D01*
X92459895Y-90528285D01*
X92711440Y-90467895D01*
X92757833Y-90448677D01*
X92827300Y-90441208D01*
X92889780Y-90472481D01*
X92892967Y-90475557D01*
X101540970Y-99123560D01*
X101574455Y-99184883D01*
X101576817Y-99200432D01*
X101584364Y-99286687D01*
X101584366Y-99286697D01*
X101643258Y-99506488D01*
X101643261Y-99506497D01*
X101739431Y-99712732D01*
X101739432Y-99712734D01*
X101869954Y-99899141D01*
X102030858Y-100060045D01*
X102030861Y-100060047D01*
X102217266Y-100190568D01*
X102275275Y-100217618D01*
X102327714Y-100263791D01*
X102346866Y-100330984D01*
X102326650Y-100397865D01*
X102275275Y-100442382D01*
X102217267Y-100469431D01*
X102217265Y-100469432D01*
X102030858Y-100599954D01*
X101869954Y-100760858D01*
X101739432Y-100947265D01*
X101739431Y-100947267D01*
X101643261Y-101153502D01*
X101643258Y-101153511D01*
X101584366Y-101373302D01*
X101584364Y-101373313D01*
X101564532Y-101599998D01*
X101564532Y-101600001D01*
X101584364Y-101826686D01*
X101584366Y-101826697D01*
X101643258Y-102046488D01*
X101643261Y-102046497D01*
X101739431Y-102252732D01*
X101739432Y-102252734D01*
X101869954Y-102439141D01*
X102030858Y-102600045D01*
X102030861Y-102600047D01*
X102217266Y-102730568D01*
X102275275Y-102757618D01*
X102327714Y-102803791D01*
X102346866Y-102870984D01*
X102326650Y-102937865D01*
X102275275Y-102982382D01*
X102217267Y-103009431D01*
X102217265Y-103009432D01*
X102030858Y-103139954D01*
X101869954Y-103300858D01*
X101739432Y-103487265D01*
X101739431Y-103487267D01*
X101643261Y-103693502D01*
X101643258Y-103693511D01*
X101584366Y-103913302D01*
X101584364Y-103913313D01*
X101564532Y-104139998D01*
X101564532Y-104140001D01*
X101584364Y-104366686D01*
X101584366Y-104366697D01*
X101643258Y-104586488D01*
X101643261Y-104586497D01*
X101739431Y-104792732D01*
X101739432Y-104792734D01*
X101869954Y-104979141D01*
X102030858Y-105140045D01*
X102030861Y-105140047D01*
X102217266Y-105270568D01*
X102275275Y-105297618D01*
X102327714Y-105343791D01*
X102346866Y-105410984D01*
X102326650Y-105477865D01*
X102275275Y-105522382D01*
X102217267Y-105549431D01*
X102217265Y-105549432D01*
X102030858Y-105679954D01*
X101869954Y-105840858D01*
X101739432Y-106027265D01*
X101739431Y-106027267D01*
X101643261Y-106233502D01*
X101643258Y-106233511D01*
X101584366Y-106453302D01*
X101584364Y-106453313D01*
X101564532Y-106679998D01*
X101564532Y-106680001D01*
X101584364Y-106906686D01*
X101584366Y-106906697D01*
X101643258Y-107126488D01*
X101643261Y-107126497D01*
X101739431Y-107332732D01*
X101739432Y-107332734D01*
X101869954Y-107519141D01*
X102030858Y-107680045D01*
X102030861Y-107680047D01*
X102217266Y-107810568D01*
X102275278Y-107837619D01*
X102327713Y-107883788D01*
X102346866Y-107950982D01*
X102326651Y-108017863D01*
X102275277Y-108062380D01*
X102217268Y-108089430D01*
X102217265Y-108089432D01*
X102030858Y-108219954D01*
X101869954Y-108380858D01*
X101739432Y-108567265D01*
X101739431Y-108567267D01*
X101643261Y-108773502D01*
X101643258Y-108773511D01*
X101584366Y-108993302D01*
X101584364Y-108993313D01*
X101564532Y-109219998D01*
X101564532Y-109220001D01*
X101584364Y-109446686D01*
X101584366Y-109446697D01*
X101643258Y-109666488D01*
X101643261Y-109666497D01*
X101739431Y-109872732D01*
X101739432Y-109872734D01*
X101869954Y-110059141D01*
X102030858Y-110220045D01*
X102030861Y-110220047D01*
X102217266Y-110350568D01*
X102275275Y-110377618D01*
X102327714Y-110423791D01*
X102346866Y-110490984D01*
X102326650Y-110557865D01*
X102275275Y-110602382D01*
X102217267Y-110629431D01*
X102217265Y-110629432D01*
X102030858Y-110759954D01*
X101869954Y-110920858D01*
X101739432Y-111107265D01*
X101739431Y-111107267D01*
X101643261Y-111313502D01*
X101643258Y-111313511D01*
X101584366Y-111533302D01*
X101584364Y-111533313D01*
X101564532Y-111759998D01*
X101564532Y-111760001D01*
X101584364Y-111986686D01*
X101584366Y-111986697D01*
X101643258Y-112206488D01*
X101643261Y-112206497D01*
X101739431Y-112412732D01*
X101739432Y-112412734D01*
X101869954Y-112599141D01*
X102030858Y-112760045D01*
X102030861Y-112760047D01*
X102217266Y-112890568D01*
X102275865Y-112917893D01*
X102328305Y-112964065D01*
X102347457Y-113031258D01*
X102327242Y-113098139D01*
X102275867Y-113142657D01*
X102217511Y-113169869D01*
X102144527Y-113220972D01*
X102144526Y-113220973D01*
X102698432Y-113774878D01*
X102581542Y-113825651D01*
X102464261Y-113921066D01*
X102377072Y-114044585D01*
X102346645Y-114130198D01*
X101790973Y-113574526D01*
X101790972Y-113574527D01*
X101739868Y-113647513D01*
X101643734Y-113853673D01*
X101643730Y-113853682D01*
X101584860Y-114073389D01*
X101584858Y-114073400D01*
X101565034Y-114299997D01*
X101565034Y-114300002D01*
X101584858Y-114526599D01*
X101584860Y-114526610D01*
X101643730Y-114746317D01*
X101643734Y-114746326D01*
X101739865Y-114952481D01*
X101739866Y-114952483D01*
X101790973Y-115025471D01*
X101790974Y-115025472D01*
X102344070Y-114472375D01*
X102346884Y-114485915D01*
X102416442Y-114620156D01*
X102519638Y-114730652D01*
X102648819Y-114809209D01*
X102700002Y-114823549D01*
X102144526Y-115379025D01*
X102144526Y-115379026D01*
X102217512Y-115430131D01*
X102217516Y-115430133D01*
X102276457Y-115457618D01*
X102328896Y-115503790D01*
X102348048Y-115570984D01*
X102327832Y-115637865D01*
X102276457Y-115682382D01*
X102217513Y-115709868D01*
X102144527Y-115760972D01*
X102144526Y-115760973D01*
X102698432Y-116314878D01*
X102581542Y-116365651D01*
X102464261Y-116461066D01*
X102377072Y-116584585D01*
X102346645Y-116670198D01*
X101790973Y-116114526D01*
X101790972Y-116114527D01*
X101739868Y-116187513D01*
X101643734Y-116393673D01*
X101643730Y-116393682D01*
X101584860Y-116613389D01*
X101584858Y-116613400D01*
X101565034Y-116839997D01*
X101565034Y-116840002D01*
X101584858Y-117066599D01*
X101584860Y-117066610D01*
X101643730Y-117286317D01*
X101643734Y-117286326D01*
X101739865Y-117492481D01*
X101739866Y-117492483D01*
X101790973Y-117565471D01*
X101790974Y-117565472D01*
X102344070Y-117012375D01*
X102346884Y-117025915D01*
X102416442Y-117160156D01*
X102519638Y-117270652D01*
X102648819Y-117349209D01*
X102700002Y-117363549D01*
X102144526Y-117919025D01*
X102144526Y-117919026D01*
X102217512Y-117970131D01*
X102217520Y-117970135D01*
X102275865Y-117997342D01*
X102328305Y-118043514D01*
X102347457Y-118110707D01*
X102327242Y-118177589D01*
X102275867Y-118222105D01*
X102217266Y-118249432D01*
X102217264Y-118249433D01*
X102030858Y-118379954D01*
X101869954Y-118540858D01*
X101739432Y-118727265D01*
X101739431Y-118727267D01*
X101643261Y-118933502D01*
X101643258Y-118933511D01*
X101584366Y-119153302D01*
X101584364Y-119153313D01*
X101564532Y-119379998D01*
X101564532Y-119380001D01*
X101584364Y-119606686D01*
X101584366Y-119606697D01*
X101643258Y-119826488D01*
X101643261Y-119826497D01*
X101739431Y-120032732D01*
X101739432Y-120032734D01*
X101869954Y-120219141D01*
X102030858Y-120380045D01*
X102055462Y-120397273D01*
X102099087Y-120451849D01*
X102106281Y-120521348D01*
X102074758Y-120583703D01*
X102014529Y-120619117D01*
X101997593Y-120622138D01*
X101962516Y-120625908D01*
X101827671Y-120676202D01*
X101827664Y-120676206D01*
X101712455Y-120762452D01*
X101712452Y-120762455D01*
X101626206Y-120877664D01*
X101626202Y-120877671D01*
X101575908Y-121012517D01*
X101569501Y-121072116D01*
X101569501Y-121072123D01*
X101569500Y-121072135D01*
X101569500Y-122767870D01*
X101569501Y-122767876D01*
X101575908Y-122827483D01*
X101626202Y-122962328D01*
X101626204Y-122962331D01*
X101647807Y-122991189D01*
X101672224Y-123056654D01*
X101657372Y-123124927D01*
X101607967Y-123174332D01*
X101548540Y-123189500D01*
X88477597Y-123189500D01*
X88410558Y-123169815D01*
X88364803Y-123117011D01*
X88354859Y-123047853D01*
X88383884Y-122984297D01*
X88406468Y-122963928D01*
X88469139Y-122920047D01*
X88630047Y-122759139D01*
X88760568Y-122572734D01*
X88856739Y-122366496D01*
X88915635Y-122146692D01*
X88935468Y-121920000D01*
X88915635Y-121693308D01*
X88856739Y-121473504D01*
X88760568Y-121267266D01*
X88630047Y-121080861D01*
X88630045Y-121080858D01*
X88469141Y-120919954D01*
X88282735Y-120789433D01*
X88282736Y-120789433D01*
X88282734Y-120789432D01*
X88224132Y-120762105D01*
X88171694Y-120715933D01*
X88152543Y-120648739D01*
X88172759Y-120581858D01*
X88224135Y-120537341D01*
X88282482Y-120510133D01*
X88355472Y-120459025D01*
X87801568Y-119905121D01*
X87918458Y-119854349D01*
X88035739Y-119758934D01*
X88122928Y-119635415D01*
X88153355Y-119549801D01*
X88709025Y-120105472D01*
X88760136Y-120032478D01*
X88856264Y-119826331D01*
X88856269Y-119826317D01*
X88915139Y-119606610D01*
X88915141Y-119606599D01*
X88934966Y-119380002D01*
X88934966Y-119379997D01*
X88915141Y-119153400D01*
X88915139Y-119153389D01*
X88856269Y-118933682D01*
X88856265Y-118933673D01*
X88760133Y-118727516D01*
X88760131Y-118727512D01*
X88709026Y-118654526D01*
X88709025Y-118654526D01*
X88155929Y-119207621D01*
X88153116Y-119194085D01*
X88083558Y-119059844D01*
X87980362Y-118949348D01*
X87851181Y-118870791D01*
X87799996Y-118856449D01*
X88355472Y-118300974D01*
X88355471Y-118300973D01*
X88282483Y-118249866D01*
X88282481Y-118249865D01*
X88224133Y-118222657D01*
X88171694Y-118176484D01*
X88152542Y-118109291D01*
X88172758Y-118042410D01*
X88224129Y-117997895D01*
X88282734Y-117970568D01*
X88469139Y-117840047D01*
X88630047Y-117679139D01*
X88760568Y-117492734D01*
X88856739Y-117286496D01*
X88915635Y-117066692D01*
X88935468Y-116840000D01*
X88915635Y-116613308D01*
X88856739Y-116393504D01*
X88760568Y-116187266D01*
X88630047Y-116000861D01*
X88630045Y-116000858D01*
X88469141Y-115839954D01*
X88282734Y-115709432D01*
X88282728Y-115709429D01*
X88224725Y-115682382D01*
X88172285Y-115636210D01*
X88153133Y-115569017D01*
X88173348Y-115502135D01*
X88224725Y-115457618D01*
X88282734Y-115430568D01*
X88469139Y-115300047D01*
X88630047Y-115139139D01*
X88760568Y-114952734D01*
X88856739Y-114746496D01*
X88915635Y-114526692D01*
X88935468Y-114300000D01*
X88915635Y-114073308D01*
X88856739Y-113853504D01*
X88760568Y-113647266D01*
X88630047Y-113460861D01*
X88630045Y-113460858D01*
X88469141Y-113299954D01*
X88282734Y-113169432D01*
X88282728Y-113169429D01*
X88224725Y-113142382D01*
X88172285Y-113096210D01*
X88153133Y-113029017D01*
X88173348Y-112962135D01*
X88224725Y-112917618D01*
X88282734Y-112890568D01*
X88469139Y-112760047D01*
X88630047Y-112599139D01*
X88760568Y-112412734D01*
X88856739Y-112206496D01*
X88915635Y-111986692D01*
X88935468Y-111760000D01*
X88915635Y-111533308D01*
X88856739Y-111313504D01*
X88760568Y-111107266D01*
X88630047Y-110920861D01*
X88630045Y-110920858D01*
X88469141Y-110759954D01*
X88282734Y-110629432D01*
X88282728Y-110629429D01*
X88224725Y-110602382D01*
X88172285Y-110556210D01*
X88153133Y-110489017D01*
X88173348Y-110422135D01*
X88224725Y-110377618D01*
X88282734Y-110350568D01*
X88469139Y-110220047D01*
X88630047Y-110059139D01*
X88760568Y-109872734D01*
X88856739Y-109666496D01*
X88915635Y-109446692D01*
X88935468Y-109220000D01*
X88915635Y-108993308D01*
X88856739Y-108773504D01*
X88760568Y-108567266D01*
X88630047Y-108380861D01*
X88630045Y-108380858D01*
X88469141Y-108219954D01*
X88282735Y-108089433D01*
X88282736Y-108089433D01*
X88282734Y-108089432D01*
X88224722Y-108062380D01*
X88172284Y-108016208D01*
X88153133Y-107949014D01*
X88173349Y-107882133D01*
X88224721Y-107837619D01*
X88282734Y-107810568D01*
X88469139Y-107680047D01*
X88630047Y-107519139D01*
X88760568Y-107332734D01*
X88856739Y-107126496D01*
X88915635Y-106906692D01*
X88935468Y-106680000D01*
X88915635Y-106453308D01*
X88856739Y-106233504D01*
X88760568Y-106027266D01*
X88630047Y-105840861D01*
X88630045Y-105840858D01*
X88469141Y-105679954D01*
X88282734Y-105549432D01*
X88282728Y-105549429D01*
X88224725Y-105522382D01*
X88172285Y-105476210D01*
X88153133Y-105409017D01*
X88173348Y-105342135D01*
X88224725Y-105297618D01*
X88282734Y-105270568D01*
X88469139Y-105140047D01*
X88630047Y-104979139D01*
X88760568Y-104792734D01*
X88856739Y-104586496D01*
X88915635Y-104366692D01*
X88935468Y-104140000D01*
X88915635Y-103913308D01*
X88856739Y-103693504D01*
X88760568Y-103487266D01*
X88630047Y-103300861D01*
X88630045Y-103300858D01*
X88469141Y-103139954D01*
X88282734Y-103009432D01*
X88282728Y-103009429D01*
X88224725Y-102982382D01*
X88172285Y-102936210D01*
X88153133Y-102869017D01*
X88173348Y-102802135D01*
X88224725Y-102757618D01*
X88282734Y-102730568D01*
X88469139Y-102600047D01*
X88630047Y-102439139D01*
X88760568Y-102252734D01*
X88856739Y-102046496D01*
X88915635Y-101826692D01*
X88935468Y-101600000D01*
X88915635Y-101373308D01*
X88856739Y-101153504D01*
X88760568Y-100947266D01*
X88630047Y-100760861D01*
X88630045Y-100760858D01*
X88469141Y-100599954D01*
X88282734Y-100469432D01*
X88282728Y-100469429D01*
X88224725Y-100442382D01*
X88172285Y-100396210D01*
X88153133Y-100329017D01*
X88173348Y-100262135D01*
X88224725Y-100217618D01*
X88282734Y-100190568D01*
X88469139Y-100060047D01*
X88630047Y-99899139D01*
X88760568Y-99712734D01*
X88856739Y-99506496D01*
X88915635Y-99286692D01*
X88935468Y-99060000D01*
X88915635Y-98833308D01*
X88856739Y-98613504D01*
X88760568Y-98407266D01*
X88630047Y-98220861D01*
X88630045Y-98220858D01*
X88469141Y-98059954D01*
X88282734Y-97929432D01*
X88282728Y-97929429D01*
X88224725Y-97902382D01*
X88172285Y-97856210D01*
X88153133Y-97789017D01*
X88173348Y-97722135D01*
X88224725Y-97677618D01*
X88282734Y-97650568D01*
X88469139Y-97520047D01*
X88630047Y-97359139D01*
X88760568Y-97172734D01*
X88856739Y-96966496D01*
X88915635Y-96746692D01*
X88935468Y-96520000D01*
X88915635Y-96293308D01*
X88856739Y-96073504D01*
X88760568Y-95867266D01*
X88630047Y-95680861D01*
X88630045Y-95680858D01*
X88469141Y-95519954D01*
X88282734Y-95389432D01*
X88282728Y-95389429D01*
X88224725Y-95362382D01*
X88172285Y-95316210D01*
X88153133Y-95249017D01*
X88173348Y-95182135D01*
X88224725Y-95137618D01*
X88282734Y-95110568D01*
X88469139Y-94980047D01*
X88630047Y-94819139D01*
X88760568Y-94632734D01*
X88856739Y-94426496D01*
X88915635Y-94206692D01*
X88935468Y-93980000D01*
X88915635Y-93753308D01*
X88856739Y-93533504D01*
X88760568Y-93327266D01*
X88630047Y-93140861D01*
X88630045Y-93140858D01*
X88469141Y-92979954D01*
X88282734Y-92849432D01*
X88282732Y-92849431D01*
X88076497Y-92753261D01*
X88076488Y-92753258D01*
X87856697Y-92694366D01*
X87856693Y-92694365D01*
X87856692Y-92694365D01*
X87856691Y-92694364D01*
X87856686Y-92694364D01*
X87630002Y-92674532D01*
X87629998Y-92674532D01*
X87403313Y-92694364D01*
X87403302Y-92694366D01*
X87183511Y-92753258D01*
X87183502Y-92753261D01*
X86977267Y-92849431D01*
X86977265Y-92849432D01*
X86790858Y-92979954D01*
X86629954Y-93140858D01*
X86499432Y-93327265D01*
X86499431Y-93327267D01*
X86403261Y-93533502D01*
X86403258Y-93533511D01*
X86344366Y-93753302D01*
X86344364Y-93753313D01*
X86324532Y-93979998D01*
X86324532Y-93980001D01*
X86344364Y-94206686D01*
X86344366Y-94206697D01*
X86403258Y-94426488D01*
X86403261Y-94426497D01*
X86499431Y-94632732D01*
X86499432Y-94632734D01*
X86629954Y-94819141D01*
X86790858Y-94980045D01*
X86790861Y-94980047D01*
X86977266Y-95110568D01*
X87035275Y-95137618D01*
X87087714Y-95183791D01*
X87106866Y-95250984D01*
X87086650Y-95317865D01*
X87035275Y-95362382D01*
X86977267Y-95389431D01*
X86977265Y-95389432D01*
X86790858Y-95519954D01*
X86629954Y-95680858D01*
X86499432Y-95867265D01*
X86499431Y-95867267D01*
X86403261Y-96073502D01*
X86403258Y-96073511D01*
X86344366Y-96293302D01*
X86344364Y-96293313D01*
X86324532Y-96519998D01*
X86324532Y-96520001D01*
X86344364Y-96746686D01*
X86344366Y-96746697D01*
X86403258Y-96966488D01*
X86403261Y-96966497D01*
X86499431Y-97172732D01*
X86499432Y-97172734D01*
X86629954Y-97359141D01*
X86790858Y-97520045D01*
X86790861Y-97520047D01*
X86977266Y-97650568D01*
X87035275Y-97677618D01*
X87087714Y-97723791D01*
X87106866Y-97790984D01*
X87086650Y-97857865D01*
X87035275Y-97902382D01*
X86977267Y-97929431D01*
X86977265Y-97929432D01*
X86790858Y-98059954D01*
X86629954Y-98220858D01*
X86499432Y-98407265D01*
X86499431Y-98407267D01*
X86403261Y-98613502D01*
X86403258Y-98613511D01*
X86344366Y-98833302D01*
X86344364Y-98833313D01*
X86324532Y-99059998D01*
X86324532Y-99060001D01*
X86344364Y-99286686D01*
X86344366Y-99286697D01*
X86403258Y-99506488D01*
X86403261Y-99506497D01*
X86499431Y-99712732D01*
X86499432Y-99712734D01*
X86629954Y-99899141D01*
X86790858Y-100060045D01*
X86790861Y-100060047D01*
X86977266Y-100190568D01*
X87035275Y-100217618D01*
X87087714Y-100263791D01*
X87106866Y-100330984D01*
X87086650Y-100397865D01*
X87035275Y-100442382D01*
X86977267Y-100469431D01*
X86977265Y-100469432D01*
X86790858Y-100599954D01*
X86629954Y-100760858D01*
X86499432Y-100947265D01*
X86499431Y-100947267D01*
X86403261Y-101153502D01*
X86403258Y-101153511D01*
X86344366Y-101373302D01*
X86344364Y-101373313D01*
X86324532Y-101599998D01*
X86324532Y-101600001D01*
X86344364Y-101826686D01*
X86344366Y-101826697D01*
X86403258Y-102046488D01*
X86403261Y-102046497D01*
X86499431Y-102252732D01*
X86499432Y-102252734D01*
X86629954Y-102439141D01*
X86790858Y-102600045D01*
X86790861Y-102600047D01*
X86977266Y-102730568D01*
X87035278Y-102757619D01*
X87087713Y-102803788D01*
X87106866Y-102870982D01*
X87086651Y-102937863D01*
X87035277Y-102982380D01*
X86977268Y-103009430D01*
X86977265Y-103009432D01*
X86790858Y-103139954D01*
X86629954Y-103300858D01*
X86499432Y-103487265D01*
X86499431Y-103487267D01*
X86403261Y-103693502D01*
X86403258Y-103693511D01*
X86344366Y-103913302D01*
X86344364Y-103913313D01*
X86324532Y-104139998D01*
X86324532Y-104140001D01*
X86344364Y-104366686D01*
X86344366Y-104366697D01*
X86403258Y-104586488D01*
X86403261Y-104586497D01*
X86499431Y-104792732D01*
X86499432Y-104792734D01*
X86629954Y-104979141D01*
X86790858Y-105140045D01*
X86790861Y-105140047D01*
X86977266Y-105270568D01*
X87035278Y-105297619D01*
X87087713Y-105343788D01*
X87106866Y-105410982D01*
X87086651Y-105477863D01*
X87035277Y-105522380D01*
X86977268Y-105549430D01*
X86977265Y-105549432D01*
X86790858Y-105679954D01*
X86629954Y-105840858D01*
X86499432Y-106027265D01*
X86499431Y-106027267D01*
X86403261Y-106233502D01*
X86403258Y-106233511D01*
X86344366Y-106453302D01*
X86344364Y-106453313D01*
X86324532Y-106679998D01*
X86324532Y-106680001D01*
X86344364Y-106906686D01*
X86344366Y-106906697D01*
X86403258Y-107126488D01*
X86403261Y-107126497D01*
X86499431Y-107332732D01*
X86499432Y-107332734D01*
X86629954Y-107519141D01*
X86790858Y-107680045D01*
X86790861Y-107680047D01*
X86977266Y-107810568D01*
X87035278Y-107837619D01*
X87087713Y-107883788D01*
X87106866Y-107950982D01*
X87086651Y-108017863D01*
X87035277Y-108062380D01*
X86977268Y-108089430D01*
X86977265Y-108089432D01*
X86790858Y-108219954D01*
X86629954Y-108380858D01*
X86499432Y-108567265D01*
X86499431Y-108567267D01*
X86403261Y-108773502D01*
X86403258Y-108773511D01*
X86344366Y-108993302D01*
X86344364Y-108993313D01*
X86324532Y-109219998D01*
X86324532Y-109220001D01*
X86344364Y-109446686D01*
X86344366Y-109446697D01*
X86403258Y-109666488D01*
X86403261Y-109666497D01*
X86499431Y-109872732D01*
X86499432Y-109872734D01*
X86629954Y-110059141D01*
X86790858Y-110220045D01*
X86790861Y-110220047D01*
X86977266Y-110350568D01*
X87035275Y-110377618D01*
X87087714Y-110423791D01*
X87106866Y-110490984D01*
X87086650Y-110557865D01*
X87035275Y-110602382D01*
X86977267Y-110629431D01*
X86977265Y-110629432D01*
X86790858Y-110759954D01*
X86629954Y-110920858D01*
X86499432Y-111107265D01*
X86499431Y-111107267D01*
X86403261Y-111313502D01*
X86403258Y-111313511D01*
X86344366Y-111533302D01*
X86344364Y-111533313D01*
X86324532Y-111759998D01*
X86324532Y-111760002D01*
X86328390Y-111804102D01*
X86314623Y-111872602D01*
X86266008Y-111922785D01*
X86197979Y-111938718D01*
X86132135Y-111915342D01*
X86117181Y-111902590D01*
X85751819Y-111537227D01*
X85718334Y-111475904D01*
X85715500Y-111449546D01*
X85715500Y-87940452D01*
X85735185Y-87873413D01*
X85751819Y-87852771D01*
X86354172Y-87250419D01*
X86415495Y-87216934D01*
X86441853Y-87214100D01*
X87304962Y-87214100D01*
X87372001Y-87233785D01*
G37*
%TD.AperFunction*%
%TD*%
M02*
