%TF.GenerationSoftware,KiCad,Pcbnew,7.0.6*%
%TF.CreationDate,2023-08-29T00:28:29+01:00*%
%TF.ProjectId,NESInterface,4e455349-6e74-4657-9266-6163652e6b69,rev?*%
%TF.SameCoordinates,Original*%
%TF.FileFunction,Legend,Bot*%
%TF.FilePolarity,Positive*%
%FSLAX46Y46*%
G04 Gerber Fmt 4.6, Leading zero omitted, Abs format (unit mm)*
G04 Created by KiCad (PCBNEW 7.0.6) date 2023-08-29 00:28:29*
%MOMM*%
%LPD*%
G01*
G04 APERTURE LIST*
%ADD10C,0.250000*%
%ADD11C,0.300000*%
%ADD12C,0.150000*%
G04 APERTURE END LIST*
D10*
X93910809Y-103037142D02*
X93910809Y-102703809D01*
X94434619Y-102703809D02*
X93434619Y-102703809D01*
X93434619Y-102703809D02*
X93434619Y-103179999D01*
X94434619Y-103703809D02*
X94387000Y-103608571D01*
X94387000Y-103608571D02*
X94339380Y-103560952D01*
X94339380Y-103560952D02*
X94244142Y-103513333D01*
X94244142Y-103513333D02*
X93958428Y-103513333D01*
X93958428Y-103513333D02*
X93863190Y-103560952D01*
X93863190Y-103560952D02*
X93815571Y-103608571D01*
X93815571Y-103608571D02*
X93767952Y-103703809D01*
X93767952Y-103703809D02*
X93767952Y-103846666D01*
X93767952Y-103846666D02*
X93815571Y-103941904D01*
X93815571Y-103941904D02*
X93863190Y-103989523D01*
X93863190Y-103989523D02*
X93958428Y-104037142D01*
X93958428Y-104037142D02*
X94244142Y-104037142D01*
X94244142Y-104037142D02*
X94339380Y-103989523D01*
X94339380Y-103989523D02*
X94387000Y-103941904D01*
X94387000Y-103941904D02*
X94434619Y-103846666D01*
X94434619Y-103846666D02*
X94434619Y-103703809D01*
X94434619Y-104465714D02*
X93767952Y-104465714D01*
X93958428Y-104465714D02*
X93863190Y-104513333D01*
X93863190Y-104513333D02*
X93815571Y-104560952D01*
X93815571Y-104560952D02*
X93767952Y-104656190D01*
X93767952Y-104656190D02*
X93767952Y-104751428D01*
X94434619Y-105846667D02*
X93434619Y-105846667D01*
X93434619Y-105846667D02*
X93434619Y-106227619D01*
X93434619Y-106227619D02*
X93482238Y-106322857D01*
X93482238Y-106322857D02*
X93529857Y-106370476D01*
X93529857Y-106370476D02*
X93625095Y-106418095D01*
X93625095Y-106418095D02*
X93767952Y-106418095D01*
X93767952Y-106418095D02*
X93863190Y-106370476D01*
X93863190Y-106370476D02*
X93910809Y-106322857D01*
X93910809Y-106322857D02*
X93958428Y-106227619D01*
X93958428Y-106227619D02*
X93958428Y-105846667D01*
X94434619Y-106846667D02*
X93767952Y-106846667D01*
X93958428Y-106846667D02*
X93863190Y-106894286D01*
X93863190Y-106894286D02*
X93815571Y-106941905D01*
X93815571Y-106941905D02*
X93767952Y-107037143D01*
X93767952Y-107037143D02*
X93767952Y-107132381D01*
X94434619Y-107608572D02*
X94387000Y-107513334D01*
X94387000Y-107513334D02*
X94339380Y-107465715D01*
X94339380Y-107465715D02*
X94244142Y-107418096D01*
X94244142Y-107418096D02*
X93958428Y-107418096D01*
X93958428Y-107418096D02*
X93863190Y-107465715D01*
X93863190Y-107465715D02*
X93815571Y-107513334D01*
X93815571Y-107513334D02*
X93767952Y-107608572D01*
X93767952Y-107608572D02*
X93767952Y-107751429D01*
X93767952Y-107751429D02*
X93815571Y-107846667D01*
X93815571Y-107846667D02*
X93863190Y-107894286D01*
X93863190Y-107894286D02*
X93958428Y-107941905D01*
X93958428Y-107941905D02*
X94244142Y-107941905D01*
X94244142Y-107941905D02*
X94339380Y-107894286D01*
X94339380Y-107894286D02*
X94387000Y-107846667D01*
X94387000Y-107846667D02*
X94434619Y-107751429D01*
X94434619Y-107751429D02*
X94434619Y-107608572D01*
X93767952Y-108370477D02*
X94625095Y-108370477D01*
X94625095Y-108370477D02*
X94720333Y-108322858D01*
X94720333Y-108322858D02*
X94767952Y-108227620D01*
X94767952Y-108227620D02*
X94767952Y-108180001D01*
X93434619Y-108370477D02*
X93482238Y-108322858D01*
X93482238Y-108322858D02*
X93529857Y-108370477D01*
X93529857Y-108370477D02*
X93482238Y-108418096D01*
X93482238Y-108418096D02*
X93434619Y-108370477D01*
X93434619Y-108370477D02*
X93529857Y-108370477D01*
X94387000Y-109227619D02*
X94434619Y-109132381D01*
X94434619Y-109132381D02*
X94434619Y-108941905D01*
X94434619Y-108941905D02*
X94387000Y-108846667D01*
X94387000Y-108846667D02*
X94291761Y-108799048D01*
X94291761Y-108799048D02*
X93910809Y-108799048D01*
X93910809Y-108799048D02*
X93815571Y-108846667D01*
X93815571Y-108846667D02*
X93767952Y-108941905D01*
X93767952Y-108941905D02*
X93767952Y-109132381D01*
X93767952Y-109132381D02*
X93815571Y-109227619D01*
X93815571Y-109227619D02*
X93910809Y-109275238D01*
X93910809Y-109275238D02*
X94006047Y-109275238D01*
X94006047Y-109275238D02*
X94101285Y-108799048D01*
X94387000Y-110132381D02*
X94434619Y-110037143D01*
X94434619Y-110037143D02*
X94434619Y-109846667D01*
X94434619Y-109846667D02*
X94387000Y-109751429D01*
X94387000Y-109751429D02*
X94339380Y-109703810D01*
X94339380Y-109703810D02*
X94244142Y-109656191D01*
X94244142Y-109656191D02*
X93958428Y-109656191D01*
X93958428Y-109656191D02*
X93863190Y-109703810D01*
X93863190Y-109703810D02*
X93815571Y-109751429D01*
X93815571Y-109751429D02*
X93767952Y-109846667D01*
X93767952Y-109846667D02*
X93767952Y-110037143D01*
X93767952Y-110037143D02*
X93815571Y-110132381D01*
X93767952Y-110418096D02*
X93767952Y-110799048D01*
X93434619Y-110560953D02*
X94291761Y-110560953D01*
X94291761Y-110560953D02*
X94387000Y-110608572D01*
X94387000Y-110608572D02*
X94434619Y-110703810D01*
X94434619Y-110703810D02*
X94434619Y-110799048D01*
X96044619Y-95656190D02*
X95044619Y-95656190D01*
X96044619Y-96084761D02*
X95520809Y-96084761D01*
X95520809Y-96084761D02*
X95425571Y-96037142D01*
X95425571Y-96037142D02*
X95377952Y-95941904D01*
X95377952Y-95941904D02*
X95377952Y-95799047D01*
X95377952Y-95799047D02*
X95425571Y-95703809D01*
X95425571Y-95703809D02*
X95473190Y-95656190D01*
X95377952Y-96418095D02*
X95377952Y-96799047D01*
X95044619Y-96560952D02*
X95901761Y-96560952D01*
X95901761Y-96560952D02*
X95997000Y-96608571D01*
X95997000Y-96608571D02*
X96044619Y-96703809D01*
X96044619Y-96703809D02*
X96044619Y-96799047D01*
X95377952Y-96989524D02*
X95377952Y-97370476D01*
X95044619Y-97132381D02*
X95901761Y-97132381D01*
X95901761Y-97132381D02*
X95997000Y-97180000D01*
X95997000Y-97180000D02*
X96044619Y-97275238D01*
X96044619Y-97275238D02*
X96044619Y-97370476D01*
X95377952Y-97703810D02*
X96377952Y-97703810D01*
X95425571Y-97703810D02*
X95377952Y-97799048D01*
X95377952Y-97799048D02*
X95377952Y-97989524D01*
X95377952Y-97989524D02*
X95425571Y-98084762D01*
X95425571Y-98084762D02*
X95473190Y-98132381D01*
X95473190Y-98132381D02*
X95568428Y-98180000D01*
X95568428Y-98180000D02*
X95854142Y-98180000D01*
X95854142Y-98180000D02*
X95949380Y-98132381D01*
X95949380Y-98132381D02*
X95997000Y-98084762D01*
X95997000Y-98084762D02*
X96044619Y-97989524D01*
X96044619Y-97989524D02*
X96044619Y-97799048D01*
X96044619Y-97799048D02*
X95997000Y-97703810D01*
X95997000Y-98560953D02*
X96044619Y-98656191D01*
X96044619Y-98656191D02*
X96044619Y-98846667D01*
X96044619Y-98846667D02*
X95997000Y-98941905D01*
X95997000Y-98941905D02*
X95901761Y-98989524D01*
X95901761Y-98989524D02*
X95854142Y-98989524D01*
X95854142Y-98989524D02*
X95758904Y-98941905D01*
X95758904Y-98941905D02*
X95711285Y-98846667D01*
X95711285Y-98846667D02*
X95711285Y-98703810D01*
X95711285Y-98703810D02*
X95663666Y-98608572D01*
X95663666Y-98608572D02*
X95568428Y-98560953D01*
X95568428Y-98560953D02*
X95520809Y-98560953D01*
X95520809Y-98560953D02*
X95425571Y-98608572D01*
X95425571Y-98608572D02*
X95377952Y-98703810D01*
X95377952Y-98703810D02*
X95377952Y-98846667D01*
X95377952Y-98846667D02*
X95425571Y-98941905D01*
X95949380Y-99418096D02*
X95997000Y-99465715D01*
X95997000Y-99465715D02*
X96044619Y-99418096D01*
X96044619Y-99418096D02*
X95997000Y-99370477D01*
X95997000Y-99370477D02*
X95949380Y-99418096D01*
X95949380Y-99418096D02*
X96044619Y-99418096D01*
X95425571Y-99418096D02*
X95473190Y-99465715D01*
X95473190Y-99465715D02*
X95520809Y-99418096D01*
X95520809Y-99418096D02*
X95473190Y-99370477D01*
X95473190Y-99370477D02*
X95425571Y-99418096D01*
X95425571Y-99418096D02*
X95520809Y-99418096D01*
X94997000Y-100608571D02*
X96282714Y-99751429D01*
X94997000Y-101656190D02*
X96282714Y-100799048D01*
X95377952Y-102418095D02*
X96187476Y-102418095D01*
X96187476Y-102418095D02*
X96282714Y-102370476D01*
X96282714Y-102370476D02*
X96330333Y-102322857D01*
X96330333Y-102322857D02*
X96377952Y-102227619D01*
X96377952Y-102227619D02*
X96377952Y-102084762D01*
X96377952Y-102084762D02*
X96330333Y-101989524D01*
X95997000Y-102418095D02*
X96044619Y-102322857D01*
X96044619Y-102322857D02*
X96044619Y-102132381D01*
X96044619Y-102132381D02*
X95997000Y-102037143D01*
X95997000Y-102037143D02*
X95949380Y-101989524D01*
X95949380Y-101989524D02*
X95854142Y-101941905D01*
X95854142Y-101941905D02*
X95568428Y-101941905D01*
X95568428Y-101941905D02*
X95473190Y-101989524D01*
X95473190Y-101989524D02*
X95425571Y-102037143D01*
X95425571Y-102037143D02*
X95377952Y-102132381D01*
X95377952Y-102132381D02*
X95377952Y-102322857D01*
X95377952Y-102322857D02*
X95425571Y-102418095D01*
X96044619Y-102894286D02*
X95377952Y-102894286D01*
X95044619Y-102894286D02*
X95092238Y-102846667D01*
X95092238Y-102846667D02*
X95139857Y-102894286D01*
X95139857Y-102894286D02*
X95092238Y-102941905D01*
X95092238Y-102941905D02*
X95044619Y-102894286D01*
X95044619Y-102894286D02*
X95139857Y-102894286D01*
X95377952Y-103227619D02*
X95377952Y-103608571D01*
X95044619Y-103370476D02*
X95901761Y-103370476D01*
X95901761Y-103370476D02*
X95997000Y-103418095D01*
X95997000Y-103418095D02*
X96044619Y-103513333D01*
X96044619Y-103513333D02*
X96044619Y-103608571D01*
X96044619Y-103941905D02*
X95044619Y-103941905D01*
X96044619Y-104370476D02*
X95520809Y-104370476D01*
X95520809Y-104370476D02*
X95425571Y-104322857D01*
X95425571Y-104322857D02*
X95377952Y-104227619D01*
X95377952Y-104227619D02*
X95377952Y-104084762D01*
X95377952Y-104084762D02*
X95425571Y-103989524D01*
X95425571Y-103989524D02*
X95473190Y-103941905D01*
X95377952Y-105275238D02*
X96044619Y-105275238D01*
X95377952Y-104846667D02*
X95901761Y-104846667D01*
X95901761Y-104846667D02*
X95997000Y-104894286D01*
X95997000Y-104894286D02*
X96044619Y-104989524D01*
X96044619Y-104989524D02*
X96044619Y-105132381D01*
X96044619Y-105132381D02*
X95997000Y-105227619D01*
X95997000Y-105227619D02*
X95949380Y-105275238D01*
X96044619Y-105751429D02*
X95044619Y-105751429D01*
X95425571Y-105751429D02*
X95377952Y-105846667D01*
X95377952Y-105846667D02*
X95377952Y-106037143D01*
X95377952Y-106037143D02*
X95425571Y-106132381D01*
X95425571Y-106132381D02*
X95473190Y-106180000D01*
X95473190Y-106180000D02*
X95568428Y-106227619D01*
X95568428Y-106227619D02*
X95854142Y-106227619D01*
X95854142Y-106227619D02*
X95949380Y-106180000D01*
X95949380Y-106180000D02*
X95997000Y-106132381D01*
X95997000Y-106132381D02*
X96044619Y-106037143D01*
X96044619Y-106037143D02*
X96044619Y-105846667D01*
X96044619Y-105846667D02*
X95997000Y-105751429D01*
X95949380Y-106656191D02*
X95997000Y-106703810D01*
X95997000Y-106703810D02*
X96044619Y-106656191D01*
X96044619Y-106656191D02*
X95997000Y-106608572D01*
X95997000Y-106608572D02*
X95949380Y-106656191D01*
X95949380Y-106656191D02*
X96044619Y-106656191D01*
X95997000Y-107560952D02*
X96044619Y-107465714D01*
X96044619Y-107465714D02*
X96044619Y-107275238D01*
X96044619Y-107275238D02*
X95997000Y-107180000D01*
X95997000Y-107180000D02*
X95949380Y-107132381D01*
X95949380Y-107132381D02*
X95854142Y-107084762D01*
X95854142Y-107084762D02*
X95568428Y-107084762D01*
X95568428Y-107084762D02*
X95473190Y-107132381D01*
X95473190Y-107132381D02*
X95425571Y-107180000D01*
X95425571Y-107180000D02*
X95377952Y-107275238D01*
X95377952Y-107275238D02*
X95377952Y-107465714D01*
X95377952Y-107465714D02*
X95425571Y-107560952D01*
X96044619Y-108132381D02*
X95997000Y-108037143D01*
X95997000Y-108037143D02*
X95949380Y-107989524D01*
X95949380Y-107989524D02*
X95854142Y-107941905D01*
X95854142Y-107941905D02*
X95568428Y-107941905D01*
X95568428Y-107941905D02*
X95473190Y-107989524D01*
X95473190Y-107989524D02*
X95425571Y-108037143D01*
X95425571Y-108037143D02*
X95377952Y-108132381D01*
X95377952Y-108132381D02*
X95377952Y-108275238D01*
X95377952Y-108275238D02*
X95425571Y-108370476D01*
X95425571Y-108370476D02*
X95473190Y-108418095D01*
X95473190Y-108418095D02*
X95568428Y-108465714D01*
X95568428Y-108465714D02*
X95854142Y-108465714D01*
X95854142Y-108465714D02*
X95949380Y-108418095D01*
X95949380Y-108418095D02*
X95997000Y-108370476D01*
X95997000Y-108370476D02*
X96044619Y-108275238D01*
X96044619Y-108275238D02*
X96044619Y-108132381D01*
X96044619Y-108894286D02*
X95377952Y-108894286D01*
X95473190Y-108894286D02*
X95425571Y-108941905D01*
X95425571Y-108941905D02*
X95377952Y-109037143D01*
X95377952Y-109037143D02*
X95377952Y-109180000D01*
X95377952Y-109180000D02*
X95425571Y-109275238D01*
X95425571Y-109275238D02*
X95520809Y-109322857D01*
X95520809Y-109322857D02*
X96044619Y-109322857D01*
X95520809Y-109322857D02*
X95425571Y-109370476D01*
X95425571Y-109370476D02*
X95377952Y-109465714D01*
X95377952Y-109465714D02*
X95377952Y-109608571D01*
X95377952Y-109608571D02*
X95425571Y-109703810D01*
X95425571Y-109703810D02*
X95520809Y-109751429D01*
X95520809Y-109751429D02*
X96044619Y-109751429D01*
X94997000Y-110941904D02*
X96282714Y-110084762D01*
X96044619Y-111275238D02*
X95044619Y-111275238D01*
X95520809Y-111275238D02*
X95520809Y-111846666D01*
X96044619Y-111846666D02*
X95044619Y-111846666D01*
X95663666Y-112322857D02*
X95663666Y-113084762D01*
X95520809Y-113894285D02*
X95568428Y-114037142D01*
X95568428Y-114037142D02*
X95616047Y-114084761D01*
X95616047Y-114084761D02*
X95711285Y-114132380D01*
X95711285Y-114132380D02*
X95854142Y-114132380D01*
X95854142Y-114132380D02*
X95949380Y-114084761D01*
X95949380Y-114084761D02*
X95997000Y-114037142D01*
X95997000Y-114037142D02*
X96044619Y-113941904D01*
X96044619Y-113941904D02*
X96044619Y-113560952D01*
X96044619Y-113560952D02*
X95044619Y-113560952D01*
X95044619Y-113560952D02*
X95044619Y-113894285D01*
X95044619Y-113894285D02*
X95092238Y-113989523D01*
X95092238Y-113989523D02*
X95139857Y-114037142D01*
X95139857Y-114037142D02*
X95235095Y-114084761D01*
X95235095Y-114084761D02*
X95330333Y-114084761D01*
X95330333Y-114084761D02*
X95425571Y-114037142D01*
X95425571Y-114037142D02*
X95473190Y-113989523D01*
X95473190Y-113989523D02*
X95520809Y-113894285D01*
X95520809Y-113894285D02*
X95520809Y-113560952D01*
X96044619Y-114703809D02*
X95997000Y-114608571D01*
X95997000Y-114608571D02*
X95949380Y-114560952D01*
X95949380Y-114560952D02*
X95854142Y-114513333D01*
X95854142Y-114513333D02*
X95568428Y-114513333D01*
X95568428Y-114513333D02*
X95473190Y-114560952D01*
X95473190Y-114560952D02*
X95425571Y-114608571D01*
X95425571Y-114608571D02*
X95377952Y-114703809D01*
X95377952Y-114703809D02*
X95377952Y-114846666D01*
X95377952Y-114846666D02*
X95425571Y-114941904D01*
X95425571Y-114941904D02*
X95473190Y-114989523D01*
X95473190Y-114989523D02*
X95568428Y-115037142D01*
X95568428Y-115037142D02*
X95854142Y-115037142D01*
X95854142Y-115037142D02*
X95949380Y-114989523D01*
X95949380Y-114989523D02*
X95997000Y-114941904D01*
X95997000Y-114941904D02*
X96044619Y-114846666D01*
X96044619Y-114846666D02*
X96044619Y-114703809D01*
X95377952Y-115370476D02*
X96044619Y-115608571D01*
X95377952Y-115846666D02*
X96044619Y-115608571D01*
X96044619Y-115608571D02*
X96282714Y-115513333D01*
X96282714Y-115513333D02*
X96330333Y-115465714D01*
X96330333Y-115465714D02*
X96377952Y-115370476D01*
X96044619Y-116656190D02*
X95044619Y-116656190D01*
X95997000Y-116656190D02*
X96044619Y-116560952D01*
X96044619Y-116560952D02*
X96044619Y-116370476D01*
X96044619Y-116370476D02*
X95997000Y-116275238D01*
X95997000Y-116275238D02*
X95949380Y-116227619D01*
X95949380Y-116227619D02*
X95854142Y-116180000D01*
X95854142Y-116180000D02*
X95568428Y-116180000D01*
X95568428Y-116180000D02*
X95473190Y-116227619D01*
X95473190Y-116227619D02*
X95425571Y-116275238D01*
X95425571Y-116275238D02*
X95377952Y-116370476D01*
X95377952Y-116370476D02*
X95377952Y-116560952D01*
X95377952Y-116560952D02*
X95425571Y-116656190D01*
X94997000Y-117846666D02*
X96282714Y-116989524D01*
X97654619Y-95156189D02*
X96654619Y-95156189D01*
X96654619Y-95156189D02*
X97654619Y-95727617D01*
X97654619Y-95727617D02*
X96654619Y-95727617D01*
X97130809Y-96203808D02*
X97130809Y-96537141D01*
X97654619Y-96679998D02*
X97654619Y-96203808D01*
X97654619Y-96203808D02*
X96654619Y-96203808D01*
X96654619Y-96203808D02*
X96654619Y-96679998D01*
X97607000Y-97060951D02*
X97654619Y-97203808D01*
X97654619Y-97203808D02*
X97654619Y-97441903D01*
X97654619Y-97441903D02*
X97607000Y-97537141D01*
X97607000Y-97537141D02*
X97559380Y-97584760D01*
X97559380Y-97584760D02*
X97464142Y-97632379D01*
X97464142Y-97632379D02*
X97368904Y-97632379D01*
X97368904Y-97632379D02*
X97273666Y-97584760D01*
X97273666Y-97584760D02*
X97226047Y-97537141D01*
X97226047Y-97537141D02*
X97178428Y-97441903D01*
X97178428Y-97441903D02*
X97130809Y-97251427D01*
X97130809Y-97251427D02*
X97083190Y-97156189D01*
X97083190Y-97156189D02*
X97035571Y-97108570D01*
X97035571Y-97108570D02*
X96940333Y-97060951D01*
X96940333Y-97060951D02*
X96845095Y-97060951D01*
X96845095Y-97060951D02*
X96749857Y-97108570D01*
X96749857Y-97108570D02*
X96702238Y-97156189D01*
X96702238Y-97156189D02*
X96654619Y-97251427D01*
X96654619Y-97251427D02*
X96654619Y-97489522D01*
X96654619Y-97489522D02*
X96702238Y-97632379D01*
X97273666Y-98060951D02*
X97273666Y-98822856D01*
X97607000Y-99727617D02*
X97654619Y-99632379D01*
X97654619Y-99632379D02*
X97654619Y-99441903D01*
X97654619Y-99441903D02*
X97607000Y-99346665D01*
X97607000Y-99346665D02*
X97559380Y-99299046D01*
X97559380Y-99299046D02*
X97464142Y-99251427D01*
X97464142Y-99251427D02*
X97178428Y-99251427D01*
X97178428Y-99251427D02*
X97083190Y-99299046D01*
X97083190Y-99299046D02*
X97035571Y-99346665D01*
X97035571Y-99346665D02*
X96987952Y-99441903D01*
X96987952Y-99441903D02*
X96987952Y-99632379D01*
X96987952Y-99632379D02*
X97035571Y-99727617D01*
X97654619Y-100299046D02*
X97607000Y-100203808D01*
X97607000Y-100203808D02*
X97559380Y-100156189D01*
X97559380Y-100156189D02*
X97464142Y-100108570D01*
X97464142Y-100108570D02*
X97178428Y-100108570D01*
X97178428Y-100108570D02*
X97083190Y-100156189D01*
X97083190Y-100156189D02*
X97035571Y-100203808D01*
X97035571Y-100203808D02*
X96987952Y-100299046D01*
X96987952Y-100299046D02*
X96987952Y-100441903D01*
X96987952Y-100441903D02*
X97035571Y-100537141D01*
X97035571Y-100537141D02*
X97083190Y-100584760D01*
X97083190Y-100584760D02*
X97178428Y-100632379D01*
X97178428Y-100632379D02*
X97464142Y-100632379D01*
X97464142Y-100632379D02*
X97559380Y-100584760D01*
X97559380Y-100584760D02*
X97607000Y-100537141D01*
X97607000Y-100537141D02*
X97654619Y-100441903D01*
X97654619Y-100441903D02*
X97654619Y-100299046D01*
X96987952Y-101060951D02*
X97654619Y-101060951D01*
X97083190Y-101060951D02*
X97035571Y-101108570D01*
X97035571Y-101108570D02*
X96987952Y-101203808D01*
X96987952Y-101203808D02*
X96987952Y-101346665D01*
X96987952Y-101346665D02*
X97035571Y-101441903D01*
X97035571Y-101441903D02*
X97130809Y-101489522D01*
X97130809Y-101489522D02*
X97654619Y-101489522D01*
X96987952Y-101822856D02*
X96987952Y-102203808D01*
X96654619Y-101965713D02*
X97511761Y-101965713D01*
X97511761Y-101965713D02*
X97607000Y-102013332D01*
X97607000Y-102013332D02*
X97654619Y-102108570D01*
X97654619Y-102108570D02*
X97654619Y-102203808D01*
X97654619Y-102537142D02*
X96987952Y-102537142D01*
X97178428Y-102537142D02*
X97083190Y-102584761D01*
X97083190Y-102584761D02*
X97035571Y-102632380D01*
X97035571Y-102632380D02*
X96987952Y-102727618D01*
X96987952Y-102727618D02*
X96987952Y-102822856D01*
X97654619Y-103299047D02*
X97607000Y-103203809D01*
X97607000Y-103203809D02*
X97559380Y-103156190D01*
X97559380Y-103156190D02*
X97464142Y-103108571D01*
X97464142Y-103108571D02*
X97178428Y-103108571D01*
X97178428Y-103108571D02*
X97083190Y-103156190D01*
X97083190Y-103156190D02*
X97035571Y-103203809D01*
X97035571Y-103203809D02*
X96987952Y-103299047D01*
X96987952Y-103299047D02*
X96987952Y-103441904D01*
X96987952Y-103441904D02*
X97035571Y-103537142D01*
X97035571Y-103537142D02*
X97083190Y-103584761D01*
X97083190Y-103584761D02*
X97178428Y-103632380D01*
X97178428Y-103632380D02*
X97464142Y-103632380D01*
X97464142Y-103632380D02*
X97559380Y-103584761D01*
X97559380Y-103584761D02*
X97607000Y-103537142D01*
X97607000Y-103537142D02*
X97654619Y-103441904D01*
X97654619Y-103441904D02*
X97654619Y-103299047D01*
X97654619Y-104203809D02*
X97607000Y-104108571D01*
X97607000Y-104108571D02*
X97511761Y-104060952D01*
X97511761Y-104060952D02*
X96654619Y-104060952D01*
X97654619Y-104727619D02*
X97607000Y-104632381D01*
X97607000Y-104632381D02*
X97511761Y-104584762D01*
X97511761Y-104584762D02*
X96654619Y-104584762D01*
X97607000Y-105489524D02*
X97654619Y-105394286D01*
X97654619Y-105394286D02*
X97654619Y-105203810D01*
X97654619Y-105203810D02*
X97607000Y-105108572D01*
X97607000Y-105108572D02*
X97511761Y-105060953D01*
X97511761Y-105060953D02*
X97130809Y-105060953D01*
X97130809Y-105060953D02*
X97035571Y-105108572D01*
X97035571Y-105108572D02*
X96987952Y-105203810D01*
X96987952Y-105203810D02*
X96987952Y-105394286D01*
X96987952Y-105394286D02*
X97035571Y-105489524D01*
X97035571Y-105489524D02*
X97130809Y-105537143D01*
X97130809Y-105537143D02*
X97226047Y-105537143D01*
X97226047Y-105537143D02*
X97321285Y-105060953D01*
X97654619Y-105965715D02*
X96987952Y-105965715D01*
X97178428Y-105965715D02*
X97083190Y-106013334D01*
X97083190Y-106013334D02*
X97035571Y-106060953D01*
X97035571Y-106060953D02*
X96987952Y-106156191D01*
X96987952Y-106156191D02*
X96987952Y-106251429D01*
X97273666Y-106584763D02*
X97273666Y-107346668D01*
X96654619Y-107822858D02*
X97464142Y-107822858D01*
X97464142Y-107822858D02*
X97559380Y-107870477D01*
X97559380Y-107870477D02*
X97607000Y-107918096D01*
X97607000Y-107918096D02*
X97654619Y-108013334D01*
X97654619Y-108013334D02*
X97654619Y-108203810D01*
X97654619Y-108203810D02*
X97607000Y-108299048D01*
X97607000Y-108299048D02*
X97559380Y-108346667D01*
X97559380Y-108346667D02*
X97464142Y-108394286D01*
X97464142Y-108394286D02*
X96654619Y-108394286D01*
X97607000Y-108822858D02*
X97654619Y-108965715D01*
X97654619Y-108965715D02*
X97654619Y-109203810D01*
X97654619Y-109203810D02*
X97607000Y-109299048D01*
X97607000Y-109299048D02*
X97559380Y-109346667D01*
X97559380Y-109346667D02*
X97464142Y-109394286D01*
X97464142Y-109394286D02*
X97368904Y-109394286D01*
X97368904Y-109394286D02*
X97273666Y-109346667D01*
X97273666Y-109346667D02*
X97226047Y-109299048D01*
X97226047Y-109299048D02*
X97178428Y-109203810D01*
X97178428Y-109203810D02*
X97130809Y-109013334D01*
X97130809Y-109013334D02*
X97083190Y-108918096D01*
X97083190Y-108918096D02*
X97035571Y-108870477D01*
X97035571Y-108870477D02*
X96940333Y-108822858D01*
X96940333Y-108822858D02*
X96845095Y-108822858D01*
X96845095Y-108822858D02*
X96749857Y-108870477D01*
X96749857Y-108870477D02*
X96702238Y-108918096D01*
X96702238Y-108918096D02*
X96654619Y-109013334D01*
X96654619Y-109013334D02*
X96654619Y-109251429D01*
X96654619Y-109251429D02*
X96702238Y-109394286D01*
X97130809Y-110156191D02*
X97178428Y-110299048D01*
X97178428Y-110299048D02*
X97226047Y-110346667D01*
X97226047Y-110346667D02*
X97321285Y-110394286D01*
X97321285Y-110394286D02*
X97464142Y-110394286D01*
X97464142Y-110394286D02*
X97559380Y-110346667D01*
X97559380Y-110346667D02*
X97607000Y-110299048D01*
X97607000Y-110299048D02*
X97654619Y-110203810D01*
X97654619Y-110203810D02*
X97654619Y-109822858D01*
X97654619Y-109822858D02*
X96654619Y-109822858D01*
X96654619Y-109822858D02*
X96654619Y-110156191D01*
X96654619Y-110156191D02*
X96702238Y-110251429D01*
X96702238Y-110251429D02*
X96749857Y-110299048D01*
X96749857Y-110299048D02*
X96845095Y-110346667D01*
X96845095Y-110346667D02*
X96940333Y-110346667D01*
X96940333Y-110346667D02*
X97035571Y-110299048D01*
X97035571Y-110299048D02*
X97083190Y-110251429D01*
X97083190Y-110251429D02*
X97130809Y-110156191D01*
X97130809Y-110156191D02*
X97130809Y-109822858D01*
X97273666Y-110822858D02*
X97273666Y-111584763D01*
X97654619Y-112060953D02*
X96987952Y-112060953D01*
X96654619Y-112060953D02*
X96702238Y-112013334D01*
X96702238Y-112013334D02*
X96749857Y-112060953D01*
X96749857Y-112060953D02*
X96702238Y-112108572D01*
X96702238Y-112108572D02*
X96654619Y-112060953D01*
X96654619Y-112060953D02*
X96749857Y-112060953D01*
X96987952Y-112537143D02*
X97654619Y-112537143D01*
X97083190Y-112537143D02*
X97035571Y-112584762D01*
X97035571Y-112584762D02*
X96987952Y-112680000D01*
X96987952Y-112680000D02*
X96987952Y-112822857D01*
X96987952Y-112822857D02*
X97035571Y-112918095D01*
X97035571Y-112918095D02*
X97130809Y-112965714D01*
X97130809Y-112965714D02*
X97654619Y-112965714D01*
X96987952Y-113299048D02*
X96987952Y-113680000D01*
X96654619Y-113441905D02*
X97511761Y-113441905D01*
X97511761Y-113441905D02*
X97607000Y-113489524D01*
X97607000Y-113489524D02*
X97654619Y-113584762D01*
X97654619Y-113584762D02*
X97654619Y-113680000D01*
X97607000Y-114394286D02*
X97654619Y-114299048D01*
X97654619Y-114299048D02*
X97654619Y-114108572D01*
X97654619Y-114108572D02*
X97607000Y-114013334D01*
X97607000Y-114013334D02*
X97511761Y-113965715D01*
X97511761Y-113965715D02*
X97130809Y-113965715D01*
X97130809Y-113965715D02*
X97035571Y-114013334D01*
X97035571Y-114013334D02*
X96987952Y-114108572D01*
X96987952Y-114108572D02*
X96987952Y-114299048D01*
X96987952Y-114299048D02*
X97035571Y-114394286D01*
X97035571Y-114394286D02*
X97130809Y-114441905D01*
X97130809Y-114441905D02*
X97226047Y-114441905D01*
X97226047Y-114441905D02*
X97321285Y-113965715D01*
X97654619Y-114870477D02*
X96987952Y-114870477D01*
X97178428Y-114870477D02*
X97083190Y-114918096D01*
X97083190Y-114918096D02*
X97035571Y-114965715D01*
X97035571Y-114965715D02*
X96987952Y-115060953D01*
X96987952Y-115060953D02*
X96987952Y-115156191D01*
X96987952Y-115346668D02*
X96987952Y-115727620D01*
X97654619Y-115489525D02*
X96797476Y-115489525D01*
X96797476Y-115489525D02*
X96702238Y-115537144D01*
X96702238Y-115537144D02*
X96654619Y-115632382D01*
X96654619Y-115632382D02*
X96654619Y-115727620D01*
X97654619Y-116489525D02*
X97130809Y-116489525D01*
X97130809Y-116489525D02*
X97035571Y-116441906D01*
X97035571Y-116441906D02*
X96987952Y-116346668D01*
X96987952Y-116346668D02*
X96987952Y-116156192D01*
X96987952Y-116156192D02*
X97035571Y-116060954D01*
X97607000Y-116489525D02*
X97654619Y-116394287D01*
X97654619Y-116394287D02*
X97654619Y-116156192D01*
X97654619Y-116156192D02*
X97607000Y-116060954D01*
X97607000Y-116060954D02*
X97511761Y-116013335D01*
X97511761Y-116013335D02*
X97416523Y-116013335D01*
X97416523Y-116013335D02*
X97321285Y-116060954D01*
X97321285Y-116060954D02*
X97273666Y-116156192D01*
X97273666Y-116156192D02*
X97273666Y-116394287D01*
X97273666Y-116394287D02*
X97226047Y-116489525D01*
X97607000Y-117394287D02*
X97654619Y-117299049D01*
X97654619Y-117299049D02*
X97654619Y-117108573D01*
X97654619Y-117108573D02*
X97607000Y-117013335D01*
X97607000Y-117013335D02*
X97559380Y-116965716D01*
X97559380Y-116965716D02*
X97464142Y-116918097D01*
X97464142Y-116918097D02*
X97178428Y-116918097D01*
X97178428Y-116918097D02*
X97083190Y-116965716D01*
X97083190Y-116965716D02*
X97035571Y-117013335D01*
X97035571Y-117013335D02*
X96987952Y-117108573D01*
X96987952Y-117108573D02*
X96987952Y-117299049D01*
X96987952Y-117299049D02*
X97035571Y-117394287D01*
X97607000Y-118203811D02*
X97654619Y-118108573D01*
X97654619Y-118108573D02*
X97654619Y-117918097D01*
X97654619Y-117918097D02*
X97607000Y-117822859D01*
X97607000Y-117822859D02*
X97511761Y-117775240D01*
X97511761Y-117775240D02*
X97130809Y-117775240D01*
X97130809Y-117775240D02*
X97035571Y-117822859D01*
X97035571Y-117822859D02*
X96987952Y-117918097D01*
X96987952Y-117918097D02*
X96987952Y-118108573D01*
X96987952Y-118108573D02*
X97035571Y-118203811D01*
X97035571Y-118203811D02*
X97130809Y-118251430D01*
X97130809Y-118251430D02*
X97226047Y-118251430D01*
X97226047Y-118251430D02*
X97321285Y-117775240D01*
D11*
X80295114Y-93764510D02*
X80295114Y-93264510D01*
X81080828Y-93264510D02*
X79580828Y-93264510D01*
X79580828Y-93264510D02*
X79580828Y-93978796D01*
X81080828Y-94764510D02*
X81009400Y-94621653D01*
X81009400Y-94621653D02*
X80937971Y-94550224D01*
X80937971Y-94550224D02*
X80795114Y-94478796D01*
X80795114Y-94478796D02*
X80366542Y-94478796D01*
X80366542Y-94478796D02*
X80223685Y-94550224D01*
X80223685Y-94550224D02*
X80152257Y-94621653D01*
X80152257Y-94621653D02*
X80080828Y-94764510D01*
X80080828Y-94764510D02*
X80080828Y-94978796D01*
X80080828Y-94978796D02*
X80152257Y-95121653D01*
X80152257Y-95121653D02*
X80223685Y-95193082D01*
X80223685Y-95193082D02*
X80366542Y-95264510D01*
X80366542Y-95264510D02*
X80795114Y-95264510D01*
X80795114Y-95264510D02*
X80937971Y-95193082D01*
X80937971Y-95193082D02*
X81009400Y-95121653D01*
X81009400Y-95121653D02*
X81080828Y-94978796D01*
X81080828Y-94978796D02*
X81080828Y-94764510D01*
X81080828Y-96121653D02*
X81009400Y-95978796D01*
X81009400Y-95978796D02*
X80937971Y-95907367D01*
X80937971Y-95907367D02*
X80795114Y-95835939D01*
X80795114Y-95835939D02*
X80366542Y-95835939D01*
X80366542Y-95835939D02*
X80223685Y-95907367D01*
X80223685Y-95907367D02*
X80152257Y-95978796D01*
X80152257Y-95978796D02*
X80080828Y-96121653D01*
X80080828Y-96121653D02*
X80080828Y-96335939D01*
X80080828Y-96335939D02*
X80152257Y-96478796D01*
X80152257Y-96478796D02*
X80223685Y-96550225D01*
X80223685Y-96550225D02*
X80366542Y-96621653D01*
X80366542Y-96621653D02*
X80795114Y-96621653D01*
X80795114Y-96621653D02*
X80937971Y-96550225D01*
X80937971Y-96550225D02*
X81009400Y-96478796D01*
X81009400Y-96478796D02*
X81080828Y-96335939D01*
X81080828Y-96335939D02*
X81080828Y-96121653D01*
X80080828Y-97050225D02*
X80080828Y-97621653D01*
X79580828Y-97264510D02*
X80866542Y-97264510D01*
X80866542Y-97264510D02*
X81009400Y-97335939D01*
X81009400Y-97335939D02*
X81080828Y-97478796D01*
X81080828Y-97478796D02*
X81080828Y-97621653D01*
X80080828Y-98121653D02*
X81580828Y-98121653D01*
X80152257Y-98121653D02*
X80080828Y-98264511D01*
X80080828Y-98264511D02*
X80080828Y-98550225D01*
X80080828Y-98550225D02*
X80152257Y-98693082D01*
X80152257Y-98693082D02*
X80223685Y-98764511D01*
X80223685Y-98764511D02*
X80366542Y-98835939D01*
X80366542Y-98835939D02*
X80795114Y-98835939D01*
X80795114Y-98835939D02*
X80937971Y-98764511D01*
X80937971Y-98764511D02*
X81009400Y-98693082D01*
X81009400Y-98693082D02*
X81080828Y-98550225D01*
X81080828Y-98550225D02*
X81080828Y-98264511D01*
X81080828Y-98264511D02*
X81009400Y-98121653D01*
X81080828Y-99478796D02*
X80080828Y-99478796D01*
X80366542Y-99478796D02*
X80223685Y-99550225D01*
X80223685Y-99550225D02*
X80152257Y-99621654D01*
X80152257Y-99621654D02*
X80080828Y-99764511D01*
X80080828Y-99764511D02*
X80080828Y-99907368D01*
X81080828Y-100407367D02*
X80080828Y-100407367D01*
X79580828Y-100407367D02*
X79652257Y-100335939D01*
X79652257Y-100335939D02*
X79723685Y-100407367D01*
X79723685Y-100407367D02*
X79652257Y-100478796D01*
X79652257Y-100478796D02*
X79580828Y-100407367D01*
X79580828Y-100407367D02*
X79723685Y-100407367D01*
X80080828Y-101121653D02*
X81080828Y-101121653D01*
X80223685Y-101121653D02*
X80152257Y-101193082D01*
X80152257Y-101193082D02*
X80080828Y-101335939D01*
X80080828Y-101335939D02*
X80080828Y-101550225D01*
X80080828Y-101550225D02*
X80152257Y-101693082D01*
X80152257Y-101693082D02*
X80295114Y-101764511D01*
X80295114Y-101764511D02*
X81080828Y-101764511D01*
X80080828Y-102264511D02*
X80080828Y-102835939D01*
X79580828Y-102478796D02*
X80866542Y-102478796D01*
X80866542Y-102478796D02*
X81009400Y-102550225D01*
X81009400Y-102550225D02*
X81080828Y-102693082D01*
X81080828Y-102693082D02*
X81080828Y-102835939D01*
X79580828Y-104264511D02*
X79580828Y-105121654D01*
X81080828Y-104693082D02*
X79580828Y-104693082D01*
X81009400Y-106193082D02*
X81080828Y-106050225D01*
X81080828Y-106050225D02*
X81080828Y-105764511D01*
X81080828Y-105764511D02*
X81009400Y-105621653D01*
X81009400Y-105621653D02*
X80866542Y-105550225D01*
X80866542Y-105550225D02*
X80295114Y-105550225D01*
X80295114Y-105550225D02*
X80152257Y-105621653D01*
X80152257Y-105621653D02*
X80080828Y-105764511D01*
X80080828Y-105764511D02*
X80080828Y-106050225D01*
X80080828Y-106050225D02*
X80152257Y-106193082D01*
X80152257Y-106193082D02*
X80295114Y-106264511D01*
X80295114Y-106264511D02*
X80437971Y-106264511D01*
X80437971Y-106264511D02*
X80580828Y-105550225D01*
X81009400Y-106835939D02*
X81080828Y-106978796D01*
X81080828Y-106978796D02*
X81080828Y-107264510D01*
X81080828Y-107264510D02*
X81009400Y-107407367D01*
X81009400Y-107407367D02*
X80866542Y-107478796D01*
X80866542Y-107478796D02*
X80795114Y-107478796D01*
X80795114Y-107478796D02*
X80652257Y-107407367D01*
X80652257Y-107407367D02*
X80580828Y-107264510D01*
X80580828Y-107264510D02*
X80580828Y-107050225D01*
X80580828Y-107050225D02*
X80509400Y-106907367D01*
X80509400Y-106907367D02*
X80366542Y-106835939D01*
X80366542Y-106835939D02*
X80295114Y-106835939D01*
X80295114Y-106835939D02*
X80152257Y-106907367D01*
X80152257Y-106907367D02*
X80080828Y-107050225D01*
X80080828Y-107050225D02*
X80080828Y-107264510D01*
X80080828Y-107264510D02*
X80152257Y-107407367D01*
X80080828Y-107907368D02*
X80080828Y-108478796D01*
X79580828Y-108121653D02*
X80866542Y-108121653D01*
X80866542Y-108121653D02*
X81009400Y-108193082D01*
X81009400Y-108193082D02*
X81080828Y-108335939D01*
X81080828Y-108335939D02*
X81080828Y-108478796D01*
X80295114Y-110621653D02*
X80366542Y-110835939D01*
X80366542Y-110835939D02*
X80437971Y-110907368D01*
X80437971Y-110907368D02*
X80580828Y-110978796D01*
X80580828Y-110978796D02*
X80795114Y-110978796D01*
X80795114Y-110978796D02*
X80937971Y-110907368D01*
X80937971Y-110907368D02*
X81009400Y-110835939D01*
X81009400Y-110835939D02*
X81080828Y-110693082D01*
X81080828Y-110693082D02*
X81080828Y-110121653D01*
X81080828Y-110121653D02*
X79580828Y-110121653D01*
X79580828Y-110121653D02*
X79580828Y-110621653D01*
X79580828Y-110621653D02*
X79652257Y-110764511D01*
X79652257Y-110764511D02*
X79723685Y-110835939D01*
X79723685Y-110835939D02*
X79866542Y-110907368D01*
X79866542Y-110907368D02*
X80009400Y-110907368D01*
X80009400Y-110907368D02*
X80152257Y-110835939D01*
X80152257Y-110835939D02*
X80223685Y-110764511D01*
X80223685Y-110764511D02*
X80295114Y-110621653D01*
X80295114Y-110621653D02*
X80295114Y-110121653D01*
X81080828Y-111835939D02*
X81009400Y-111693082D01*
X81009400Y-111693082D02*
X80937971Y-111621653D01*
X80937971Y-111621653D02*
X80795114Y-111550225D01*
X80795114Y-111550225D02*
X80366542Y-111550225D01*
X80366542Y-111550225D02*
X80223685Y-111621653D01*
X80223685Y-111621653D02*
X80152257Y-111693082D01*
X80152257Y-111693082D02*
X80080828Y-111835939D01*
X80080828Y-111835939D02*
X80080828Y-112050225D01*
X80080828Y-112050225D02*
X80152257Y-112193082D01*
X80152257Y-112193082D02*
X80223685Y-112264511D01*
X80223685Y-112264511D02*
X80366542Y-112335939D01*
X80366542Y-112335939D02*
X80795114Y-112335939D01*
X80795114Y-112335939D02*
X80937971Y-112264511D01*
X80937971Y-112264511D02*
X81009400Y-112193082D01*
X81009400Y-112193082D02*
X81080828Y-112050225D01*
X81080828Y-112050225D02*
X81080828Y-111835939D01*
X81080828Y-113621654D02*
X80295114Y-113621654D01*
X80295114Y-113621654D02*
X80152257Y-113550225D01*
X80152257Y-113550225D02*
X80080828Y-113407368D01*
X80080828Y-113407368D02*
X80080828Y-113121654D01*
X80080828Y-113121654D02*
X80152257Y-112978796D01*
X81009400Y-113621654D02*
X81080828Y-113478796D01*
X81080828Y-113478796D02*
X81080828Y-113121654D01*
X81080828Y-113121654D02*
X81009400Y-112978796D01*
X81009400Y-112978796D02*
X80866542Y-112907368D01*
X80866542Y-112907368D02*
X80723685Y-112907368D01*
X80723685Y-112907368D02*
X80580828Y-112978796D01*
X80580828Y-112978796D02*
X80509400Y-113121654D01*
X80509400Y-113121654D02*
X80509400Y-113478796D01*
X80509400Y-113478796D02*
X80437971Y-113621654D01*
X81080828Y-114335939D02*
X80080828Y-114335939D01*
X80366542Y-114335939D02*
X80223685Y-114407368D01*
X80223685Y-114407368D02*
X80152257Y-114478797D01*
X80152257Y-114478797D02*
X80080828Y-114621654D01*
X80080828Y-114621654D02*
X80080828Y-114764511D01*
X81080828Y-115907368D02*
X79580828Y-115907368D01*
X81009400Y-115907368D02*
X81080828Y-115764510D01*
X81080828Y-115764510D02*
X81080828Y-115478796D01*
X81080828Y-115478796D02*
X81009400Y-115335939D01*
X81009400Y-115335939D02*
X80937971Y-115264510D01*
X80937971Y-115264510D02*
X80795114Y-115193082D01*
X80795114Y-115193082D02*
X80366542Y-115193082D01*
X80366542Y-115193082D02*
X80223685Y-115264510D01*
X80223685Y-115264510D02*
X80152257Y-115335939D01*
X80152257Y-115335939D02*
X80080828Y-115478796D01*
X80080828Y-115478796D02*
X80080828Y-115764510D01*
X80080828Y-115764510D02*
X80152257Y-115907368D01*
D12*
%TO.C,U1*%
X86360000Y-123190000D02*
X86360000Y-92710000D01*
X91440000Y-123190000D02*
X86360000Y-123190000D01*
X91440000Y-125730000D02*
X91440000Y-123190000D01*
X99060000Y-125730000D02*
X91440000Y-125730000D01*
X99060000Y-123190000D02*
X99060000Y-125730000D01*
X104140000Y-123190000D02*
X99060000Y-123190000D01*
X104140000Y-92710000D02*
X104140000Y-123190000D01*
X86360000Y-92710000D02*
X104140000Y-92710000D01*
%TD*%
M02*
